<?xml version="1.0" encoding="utf-8"?>
<!-- Generator: Adobe Illustrator 17.0.0, SVG Export Plug-In . SVG Version: 6.00 Build 0)  -->
<!DOCTYPE svg PUBLIC "-//W3C//DTD SVG 1.1//EN" "http://www.w3.org/Graphics/SVG/1.1/DTD/svg11.dtd">
<svg version="1.1" id="Capa_1" xmlns="http://www.w3.org/2000/svg" xmlns:xlink="http://www.w3.org/1999/xlink" x="0px" y="0px"
	 width="280px" height="70.988px" viewBox="0 0 280 70.988" enable-background="new 0 0 280 70.988" xml:space="preserve">
<g>
	<g>
		<g>
			<g>
				<path fill="#1D1D1B" d="M19.599,4.103c1.247,0.354,2.363,0.772,3.37,1.237l3.926,1.784c0.739,0.344,1.415,0.601,2.009,0.793
					c0.598,0.188,1.197,0.283,1.791,0.283c1.446,0,2.593-0.475,3.42-1.404c0.534-0.587,1.109-1.674,1.741-3.242h4.064
					c-0.648,3.194-1.879,5.999-3.686,8.438c-1.798,2.422-4.436,3.643-7.902,3.643c-0.959,0-1.947-0.112-2.916-0.354
					c-0.955-0.228-1.928-0.556-2.867-0.959l-2.826-1.209c-2.487-1.064-3.992-1.681-4.503-1.874c-0.522-0.199-1.05-0.283-1.636-0.283
					c-1.579,0-2.779,0.582-3.638,1.774c-0.504,0.641-0.924,1.603-1.29,2.905H4.644c0.627-2.924,1.487-5.256,2.596-7.03
					c2.097-3.361,5.085-5.052,8.939-5.052C17.219,3.554,18.361,3.737,19.599,4.103"/>
			</g>
			<g>
				<path fill="#1D1D1B" d="M0,45.952v-0.133c0-13.556,10.414-24.167,24.502-24.167c9.502,0,15.608,3.985,19.726,9.692l-9.69,7.507
					c-2.667-3.327-5.712-5.453-10.17-5.453c-6.5,0-11.091,5.519-11.091,12.293v0.128c0,6.97,4.591,12.426,11.091,12.426
					c4.84,0,7.707-2.268,10.497-5.65l9.695,6.892c-4.389,6.037-10.288,10.497-20.591,10.497C10.694,69.984,0,59.815,0,45.952"/>
			</g>
		</g>
		<g>
			<g>
				<polygon fill="#1D1D1B" points="55.738,59.561 59.078,59.561 64.598,54.046 59.078,48.533 55.738,48.533 61.249,54.046 				"/>
			</g>
			<g>
				<path fill="#1D1D1B" d="M82.729,39.003h-2.671v4.419h-1.321V32.257h4.749c2.785,0,3.98,1.034,3.98,3.364
					c0,2.078-0.961,2.972-3.115,3.333l3.349,4.469h-1.634L82.729,39.003z M86.14,35.62c0-1.504-0.828-2.185-2.669-2.185h-3.414
					v4.374h3.224C85.341,37.81,86.14,37.24,86.14,35.62"/>
			</g>
			<g>
				<path fill="#1D1D1B" d="M97.974,38.328c0,1.587-0.251,2.733-0.899,3.729c-0.643,0.989-1.869,1.506-3.632,1.506
					c-1.779,0-2.956-0.441-3.606-1.381c-0.626-0.965-0.83-2.097-0.83-3.855v-6.073h1.321v5.928c0,2.804,1.039,4.201,3.115,4.201
					c1.129,0,1.95-0.377,2.453-1.148c0.503-0.769,0.757-1.777,0.757-3.039v-5.942h1.321V38.328z"/>
			</g>
			<g>
				<path fill="#1D1D1B" d="M108.746,32.257v11.168h-1.319l-5.838-9.002v9.002h-1.324V32.257h1.324l5.838,8.993v-8.993H108.746z
					 M101.874,30.274c0.109-0.173,0.204-0.41,0.754-0.804c0.285-0.202,0.569-0.315,0.833-0.315c0.332,0,0.69,0.159,1.101,0.46
					c0.427,0.297,0.742,0.439,0.944,0.439c0.256,0,0.584-0.266,0.757-0.47l0.123-0.161l0.74,0.536
					c-0.109,0.176-0.204,0.377-0.754,0.771c-0.266,0.204-0.548,0.299-0.816,0.299c-0.346,0-0.726-0.14-1.15-0.439
					c-0.425-0.299-0.723-0.455-0.894-0.455c-0.254,0-0.581,0.282-0.757,0.517l-0.126,0.176L101.874,30.274z"/>
			</g>
			<g>
				<path fill="#1D1D1B" d="M117.24,39.805h-4.405l-1.43,3.62h-1.414l4.514-11.168h1.051l4.531,11.168h-1.414L117.24,39.805z
					 M116.77,38.626l-1.748-4.353l-1.729,4.353H116.77z"/>
			</g>
			<g>
				<path fill="#1D1D1B" d="M71.523,55.17h-3.428v4.419h-1.324v-11.17h4.751c2.78,0,3.98,1.037,3.98,3.371
					C75.503,54.034,74.18,55.17,71.523,55.17 M74.18,51.79c0-1.513-0.833-2.189-2.673-2.189h-3.411v4.374h3.221
					C73.38,53.975,74.18,53.405,74.18,51.79"/>
			</g>
			<g>
				<path fill="#1D1D1B" d="M80.848,55.17h-2.669v4.419h-1.324v-11.17h4.751c2.783,0,3.978,1.037,3.978,3.371
					c0,2.071-0.956,2.972-3.115,3.33l3.352,4.469h-1.634L80.848,55.17z M84.261,51.79c0-1.513-0.83-2.189-2.671-2.189h-3.411v4.374
					H81.4C83.464,53.975,84.261,53.405,84.261,51.79"/>
			</g>
			<g>
				<path fill="#1D1D1B" d="M92.116,59.733c-1.53,0-2.804-0.567-3.84-1.698c-1.025-1.136-1.542-2.474-1.542-4.028
					c0-1.558,0.517-2.896,1.542-4.033c1.037-1.129,2.31-1.696,3.84-1.696c1.521,0,2.797,0.567,3.822,1.696
					c1.037,1.136,1.554,2.474,1.554,4.033c0,1.554-0.517,2.892-1.554,4.028C94.912,59.166,93.636,59.733,92.116,59.733
					 M92.116,49.478c-1.15,0-2.123,0.455-2.896,1.352c-0.771,0.894-1.167,1.964-1.167,3.176c0,1.207,0.396,2.282,1.167,3.172
					c0.773,0.901,1.746,1.357,2.896,1.357c1.146,0,2.121-0.455,2.885-1.357c0.776-0.89,1.172-1.964,1.172-3.172
					c0-1.212-0.396-2.282-1.172-3.176C94.236,49.934,93.261,49.478,92.116,49.478 M92.851,44.819h1.447l-1.634,2.346H91.58
					L92.851,44.819z"/>
			</g>
			<g>
				<polygon fill="#1D1D1B" points="99.066,59.585 97.524,59.585 101.549,53.705 98.027,48.42 99.6,48.42 102.351,52.573 
					105.155,48.42 106.676,48.42 103.063,53.679 107.029,59.585 105.468,59.585 102.304,54.808 				"/>
			</g>
			<g>
				<rect x="108.298" y="48.42" fill="#1D1D1B" width="1.321" height="11.163"/>
			</g>
			<g>
				<polygon fill="#1D1D1B" points="123.588,48.42 123.588,59.586 122.267,59.586 122.267,49.538 118.414,59.586 117.157,59.586 
					113.3,49.538 113.3,59.586 111.976,59.586 111.976,48.42 114.292,48.42 117.783,57.543 121.277,48.42 				"/>
			</g>
			<g>
				<path fill="#1D1D1B" d="M132.082,55.972h-4.405l-1.428,3.615h-1.419l4.517-11.168h1.053l4.528,11.168h-1.414L132.082,55.972z
					 M131.61,54.796l-1.748-4.358l-1.725,4.358H131.61z"/>
			</g>
			<g>
				<path fill="#1D1D1B" d="M63.735,40.387l1.12,0.631c-0.804,1.734-2.22,2.605-4.289,2.605c-1.454,0-2.669-0.536-3.646-1.608
					c-0.963-1.094-1.452-2.465-1.452-4.135c0-1.642,0.489-3.013,1.452-4.101c0.977-1.091,2.192-1.642,3.646-1.642
					c2.069,0,3.535,0.98,4.289,2.619l-1.12,0.645c-0.612-1.388-1.67-2.083-3.169-2.083c-1.072,0-1.974,0.444-2.699,1.309
					c-0.709,0.873-1.072,1.94-1.072,3.252c0,1.324,0.363,2.412,1.072,3.281c0.712,0.854,1.613,1.279,2.699,1.279
					C62.096,42.438,63.149,41.758,63.735,40.387"/>
			</g>
			<g>
				<path fill="#1D1D1B" d="M71.483,43.62c-1.532,0-2.813-0.567-3.85-1.703c-1.027-1.134-1.547-2.477-1.547-4.035
					c0-1.563,0.519-2.906,1.547-4.04c1.037-1.139,2.318-1.708,3.85-1.708c1.528,0,2.806,0.569,3.833,1.708
					c1.046,1.134,1.561,2.477,1.561,4.04c0,1.558-0.515,2.901-1.561,4.035C74.29,43.053,73.011,43.62,71.483,43.62 M71.483,33.334
					c-1.153,0-2.135,0.46-2.904,1.357c-0.773,0.901-1.169,1.976-1.169,3.191c0,1.21,0.396,2.284,1.169,3.183
					c0.769,0.899,1.751,1.354,2.904,1.354c1.148,0,2.128-0.455,2.903-1.354c0.771-0.899,1.165-1.974,1.165-3.183
					c0-1.215-0.394-2.289-1.165-3.191C73.611,33.795,72.631,33.334,71.483,33.334"/>
			</g>
		</g>
	</g>
	<g>
		<g>
			<g>
				<g>
					<path fill="#1D1D1B" d="M211.796,43.792c-0.037,0.098,1.761,7.631,1.995,8.061c0.467,0.86,2.271-2.16,2.758-2.982
						c0.955-1.614,1.71-2.89,3.184-4.129c6.636-5.58,12.582,0.394,19.038-2.176c4.299-1.712,6.626-5.87,7.502-7.435
						c1.171-2.385,2.624-6.189,1.731-11.662c-0.277,0.13-0.533,0.25-0.8,0.376c0.283-0.133,0.554-0.26,0.8-0.376
						c-0.173-0.941-0.311-1.506-0.589-2.421c-1.275-3.946-2.576-4.893-2.588-4.898C236.347,8.271,214.383,21.71,211.796,43.792z"/>
				</g>
			</g>
			<g>
				<g>
					<path fill="#1D1D1B" d="M198.402,27.747c-0.004,0.083,2.104,7.544,3.252,7.212c0.743-0.215,1.195-2.168,1.366-2.903
						c0.335-1.444,0.599-2.584,1.413-3.869c3.666-5.785,9.569-2.703,13.817-6.179c2.829-2.314,3.59-6,3.876-7.388
						c0.313-2.075,0.5-5.286-1.477-9.195c-0.178,0.164-0.342,0.316-0.513,0.474c0.182-0.168,0.355-0.328,0.513-0.474
						c-0.355-0.667-0.593-1.06-1.021-1.683c-1.901-2.668-3.106-3.07-3.117-3.072C208.248-3.24,195.084,10.501,198.402,27.747z"/>
				</g>
			</g>
			<g>
				<g>
					<path fill="#1D1D1B" d="M177.988,3.561c-0.01,0.003-1.177,0.644-2.635,3.749c-0.324,0.721-0.496,1.171-0.736,1.925
						c0.19,0.12,0.399,0.253,0.617,0.392c-0.206-0.131-0.404-0.256-0.617-0.392c-1.305,4.397-0.509,7.67,0.202,9.749
						c0.555,1.376,2.03,5.031,5.378,6.885c5.029,2.784,10.532-1.497,15.394,3.775c1.08,1.171,1.566,2.296,2.181,3.721
						c0.313,0.726,1.146,2.653,1.951,2.735c1.245,0.127,2.019-7.955,1.999-8.04C201.908,9.671,185.769-2.017,177.988,3.561z"/>
				</g>
			</g>
			<g>
				<g>
					<g>
						<path fill="#1D1D1B" d="M207.424,21.902c-0.26,0.423-0.509,0.843-0.748,1.257h2.982c0.128-0.431,0.261-0.851,0.4-1.257
							H207.424z"/>
					</g>
				</g>
				<g>
					<g>
						<path fill="#1D1D1B" d="M213.743,13.897c-0.425,0.41-0.838,0.83-1.237,1.257h0.787c0.311-0.486,0.601-0.906,0.856-1.257
							H213.743z"/>
					</g>
				</g>
				<g>
					<g>
						<path fill="#1D1D1B" d="M211.286,16.528c-0.382,0.452-0.751,0.91-1.106,1.37h1.557c0.245-0.489,0.49-0.945,0.73-1.37H211.286z
							"/>
					</g>
				</g>
				<g>
					<g>
						<path fill="#1D1D1B" d="M209.162,19.271c-0.298,0.419-0.585,0.839-0.862,1.257h2.264c0.171-0.436,0.347-0.855,0.525-1.257
							H209.162z"/>
					</g>
				</g>
				<g>
					<g>
						<path fill="#1D1D1B" d="M203.437,29.794c-0.212,0.52-0.39,0.982-0.535,1.37h5.445c0.018-0.464,0.045-0.921,0.08-1.37H203.437z
							"/>
					</g>
				</g>
				<g>
					<g>
						<path fill="#1D1D1B" d="M205.913,24.533c-0.23,0.428-0.448,0.848-0.654,1.257h3.739c0.089-0.428,0.184-0.848,0.286-1.257
							H205.913z"/>
					</g>
				</g>
				<g>
					<g>
						<path fill="#1D1D1B" d="M204.591,27.163c-0.206,0.438-0.396,0.858-0.572,1.257h4.547c0.052-0.427,0.112-0.846,0.179-1.257
							H204.591z"/>
					</g>
				</g>
				<g>
					<g>
						<path fill="#1D1D1B" d="M202.875,64.332c-0.007,0.437-0.016,0.857-0.027,1.257h8.404c0.027-0.401,0.053-0.821,0.077-1.257
							H202.875z"/>
					</g>
				</g>
				<g>
					<g>
						<path fill="#1D1D1B" d="M202.667,56.327c0.031,0.464,0.059,0.921,0.082,1.37h8.721c-0.006-0.45-0.016-0.907-0.029-1.37
							H202.667z"/>
					</g>
				</g>
				<g>
					<g>
						<path fill="#1D1D1B" d="M202.453,53.696c0.041,0.424,0.077,0.843,0.111,1.257h8.827c-0.018-0.415-0.04-0.835-0.065-1.257
							H202.453z"/>
					</g>
				</g>
				<g>
					<g>
						<path fill="#1D1D1B" d="M202.64,69.594c-0.064,0.809-0.115,1.251-0.115,1.251h8.206c0,0,0.066-0.446,0.159-1.251H202.64z"/>
					</g>
				</g>
				<g>
					<g>
						<path fill="#1D1D1B" d="M211.149,66.963h-8.35c-0.02,0.455-0.042,0.875-0.064,1.257h8.301
							C211.073,67.837,211.111,67.417,211.149,66.963z"/>
					</g>
				</g>
				<g>
					<g>
						<path fill="#1D1D1B" d="M202.853,60.328h8.616c0.006-0.412,0.009-0.831,0.01-1.257h-8.667
							C202.829,59.498,202.842,59.917,202.853,60.328z"/>
					</g>
				</g>
				<g>
					<g>
						<path fill="#1D1D1B" d="M202.879,61.701c0.005,0.431,0.007,0.85,0.007,1.257h8.51c0.017-0.408,0.032-0.827,0.044-1.257
							H202.879z"/>
					</g>
				</g>
				<g>
					<g>
						<path fill="#1D1D1B" d="M211.232,52.323c-0.032-0.417-0.067-0.836-0.107-1.257h-8.828v-1.373h8.687
							c-0.047-0.418-0.098-0.837-0.152-1.257h-8.535v-1.373h8.341c-0.064-0.419-0.131-0.838-0.204-1.257h-8.137v-1.373h7.883
							c-0.09-0.458-0.186-0.914-0.288-1.37h-7.447v-1.373h7.121c-0.024-0.094-0.047-0.188-0.071-0.281
							c-0.085-0.328-0.163-0.653-0.238-0.976h-6.812v-1.373h6.521c-0.082-0.424-0.153-0.842-0.218-1.257h-6.302v-1.373h6.113
							c-0.05-0.424-0.092-0.843-0.125-1.257h-5.988v-1.373h5.905c-0.017-0.425-0.026-0.844-0.027-1.257h-5.878v-0.07
							c-0.016,0.051-0.025,0.078-0.025,0.078c-6.574-10.076-15.816-15.388-15.816-15.388c10.571,9.256,14.427,23.622,15.707,35.165
							H211.232z"/>
					</g>
				</g>
			</g>
			<g>
				<g>
					<g>
						<path fill="#1D1D1B" d="M232.424,37.022c-0.363,0.059-0.72,0.119-1.072,0.182v1.036c0.371-0.183,0.729-0.348,1.072-0.496
							V37.022z"/>
					</g>
				</g>
				<g>
					<g>
						<path fill="#1D1D1B" d="M226.081,41.282h0.171c0.608-0.532,1.22-1.01,1.827-1.441v-2.308
							c-0.366,0.083-0.723,0.168-1.072,0.253v2.461h-0.926V38.02c-0.474,0.123-0.929,0.247-1.366,0.37v1.725h-0.926v-1.456
							c-0.375,0.112-0.731,0.223-1.072,0.331v1.336h-0.926v-1.032c-0.479,0.161-0.915,0.315-1.305,0.458v0.772h-0.926v-0.422
							c-0.921,0.359-1.418,0.59-1.418,0.59c0.03-0.763,0.21-1.533,0.493-2.293h-0.074v-3.424h0.926v1.633
							c2.299-3.975,6.73-7.278,6.73-7.278c-1.742,0.758-3.313,1.622-4.732,2.569v1.832h-0.926v-1.188
							c-0.368,0.268-0.725,0.542-1.072,0.821v0.578h-0.691c-3.273,2.825-5.517,6.144-7.041,9.524
							c2.512,11.236,0.751,25.678,0.449,27.38h1.614v-2.569h0.926v2.569h3.825c-1.548-9.448-0.48-16.359,1.739-21.405h-0.749v-3.424
							h0.926v3.027c0.403-0.875,0.841-1.691,1.305-2.454v-0.771h0.489c0.482-0.725,0.987-1.396,1.509-2.019V41.15h0.926v1.609
							c0.449-0.474,0.906-0.916,1.366-1.326V41.282z M215.513,37.512h0.926v3.424h-0.926V37.512z M215.513,41.97h0.926v3.424h-0.926
							V41.97z M213.515,42.18h0.926v3.424h-0.926V42.18z M213.515,46.638h0.926v3.424h-0.926V46.638z M213.515,54.52v-3.424h0.926
							v3.424H213.515z M214.744,67.242h-0.926v-3.424h0.926V67.242z M214.744,62.784h-0.926V59.36h0.926V62.784z M215.513,46.428
							h0.926v3.424h-0.926V46.428z M216.742,67.031h-0.926v-3.424h0.926V67.031z M216.742,62.574h-0.926V59.15h0.926V62.574z
							 M216.742,58.116h-0.926v-3.424h0.926V58.116z M218.488,54.108h-0.926v-3.424h0.926V54.108z M218.488,49.65h-0.926v-3.424
							h0.926V49.65z M218.488,45.192h-0.926v-3.424h0.926V45.192z M220.486,44.982h-0.926v-3.424h0.926V44.982z M222.717,44.784
							h-0.926V41.36h0.926V44.784z"/>
					</g>
				</g>
				<g>
					<g>
						<path fill="#1D1D1B" d="M233.35,36.878v0.488c1.704-0.651,2.84-0.849,2.84-0.849C235.213,36.62,234.266,36.742,233.35,36.878z
							"/>
					</g>
				</g>
				<g>
					<g>
						<path fill="#1D1D1B" d="M229.046,37.656v1.886c0.469-0.301,0.931-0.573,1.38-0.82v-1.347
							C229.954,37.466,229.495,37.56,229.046,37.656z"/>
					</g>
				</g>
			</g>
			<g>
				<g>
					<g>
						<path fill="#1D1D1B" d="M203.294,13.228c0.723,2.107,2.211,3.732,4.046,4.677c0.869-1.873,1.046-4.069,0.323-6.176
							c-0.723-2.107-2.211-3.732-4.046-4.677C202.748,8.925,202.571,11.121,203.294,13.228z"/>
					</g>
				</g>
				<g>
					<g>
						<path fill="#1D1D1B" d="M220.842,24.383c-0.441,1.896-0.091,3.79,0.831,5.341c1.512-0.985,2.661-2.531,3.101-4.427
							c0.441-1.896,0.091-3.79-0.831-5.341C222.431,20.941,221.282,22.487,220.842,24.383z"/>
					</g>
				</g>
				<g>
					<g>
						<path fill="#1D1D1B" d="M215.227,29.52c-0.238,1.548,0.172,3.049,1.03,4.241c1.176-0.879,2.017-2.188,2.255-3.736
							c0.238-1.548-0.172-3.049-1.03-4.241C216.307,26.663,215.465,27.971,215.227,29.52z"/>
					</g>
				</g>
				<g>
					<g>
						<path fill="#1D1D1B" d="M183.478,27.752c0.972,0.941,2.205,1.432,3.426,1.472c-0.079-1.219-0.609-2.436-1.58-3.377
							c-0.972-0.941-2.205-1.432-3.426-1.472C181.976,25.594,182.506,26.811,183.478,27.752z"/>
					</g>
				</g>
				<g>
					<g>
						<path fill="#1D1D1B" d="M189.349,29.754c0.493,1.26,1.526,2.174,2.808,2.644c0.623-1.215,0.762-2.587,0.269-3.847
							c-0.493-1.26-1.526-2.174-2.808-2.644C188.996,27.122,188.857,28.494,189.349,29.754z"/>
					</g>
				</g>
				<g>
					<g>
						<path fill="#1D1D1B" d="M177.336,28.707c1.403,0.576,2.892,0.574,4.181,0.106c-0.587-1.239-1.644-2.288-3.047-2.864
							s-2.892-0.574-4.181-0.106C174.876,27.082,175.933,28.131,177.336,28.707z"/>
					</g>
				</g>
				<g>
					<g>
						<path fill="#1D1D1B" d="M180.668,33.407c1.363-0.088,2.564-0.735,3.416-1.715c-0.971-0.862-2.245-1.349-3.608-1.261
							c-1.363,0.088-2.564,0.735-3.416,1.715C178.031,33.008,179.305,33.495,180.668,33.407z"/>
					</g>
				</g>
				<g>
					<g>
						<path fill="#1D1D1B" d="M237.498,38.153c-1.647-0.205-3.23,0.317-4.474,1.329c0.958,1.287,2.364,2.181,4.012,2.386
							c1.647,0.205,3.23-0.317,4.474-1.329C240.552,39.252,239.145,38.358,237.498,38.153z"/>
					</g>
				</g>
				<g>
					<g>
						<path fill="#1D1D1B" d="M230.21,31.694c-0.851,1.145-1.131,2.55-0.901,3.909c1.368-0.172,2.632-0.845,3.484-1.99
							c0.851-1.145,1.131-2.55,0.901-3.909C232.325,29.876,231.061,30.549,230.21,31.694z"/>
					</g>
				</g>
				<g>
					<g>
						<path fill="#1D1D1B" d="M236.412,30.782c-0.851,1.145-1.131,2.55-0.901,3.909c1.368-0.172,2.632-0.845,3.484-1.99
							c0.851-1.145,1.131-2.55,0.901-3.909C238.527,28.963,237.263,29.636,236.412,30.782z"/>
					</g>
				</g>
				<g>
					<g>
						<path fill="#1D1D1B" d="M241.986,32.727c-1.158,0.329-2.067,1.125-2.611,2.153c1.004,0.588,2.195,0.787,3.353,0.459
							c1.158-0.329,2.067-1.125,2.611-2.153C244.336,32.598,243.144,32.398,241.986,32.727z"/>
					</g>
				</g>
				<g>
					<g>
						<path fill="#1D1D1B" d="M230.015,26.022c-1.158,0.329-2.067,1.125-2.611,2.153c1.004,0.588,2.195,0.787,3.353,0.459
							c1.158-0.329,2.067-1.125,2.611-2.153C232.365,25.893,231.173,25.693,230.015,26.022z"/>
					</g>
				</g>
				<g>
					<g>
						<path fill="#1D1D1B" d="M228.571,19.466c-0.816,1.229-1.029,2.695-0.717,4.086c1.404-0.252,2.673-1.016,3.489-2.245
							c0.816-1.229,1.029-2.695,0.717-4.086C230.656,17.473,229.387,18.237,228.571,19.466z"/>
					</g>
				</g>
				<g>
					<g>
						<path fill="#1D1D1B" d="M213.669,21.208c-1.881,1.192-3.117,3.017-3.61,5.022c2.023,0.41,4.201,0.073,6.082-1.119
							c1.881-1.192,3.117-3.017,3.61-5.022C217.728,19.678,215.55,20.016,213.669,21.208z"/>
					</g>
				</g>
				<g>
					<g>
						<path fill="#1D1D1B" d="M218.238,13.125c-2.123,0.77-3.744,2.308-4.669,4.185c1.914,0.847,4.143,0.988,6.266,0.218
							c2.123-0.77,3.744-2.308,4.669-4.185C222.591,12.496,220.361,12.355,218.238,13.125z"/>
					</g>
				</g>
				<g>
					<g>
						<path fill="#1D1D1B" d="M218.636,6.335c-1.84,1.219-3.027,3.052-3.475,5.048c2.013,0.366,4.163-0.012,6.003-1.231
							c1.84-1.219,3.027-3.052,3.475-5.048C222.627,4.738,220.476,5.116,218.636,6.335z"/>
					</g>
				</g>
				<g>
					<g>
						<path fill="#1D1D1B" d="M210.172,6.91c-0.137,2.037,0.544,3.939,1.76,5.388c1.399-1.274,2.328-3.068,2.464-5.105
							c0.137-2.037-0.544-3.939-1.76-5.388C211.238,3.08,210.309,4.873,210.172,6.91z"/>
					</g>
				</g>
				<g>
					<g>
						<path fill="#1D1D1B" d="M231.348,42.293c-2.203-0.328-4.331,0.245-6.015,1.44c1.263,1.633,3.131,2.801,5.334,3.129
							s4.331-0.245,6.015-1.44C235.42,43.789,233.551,42.621,231.348,42.293z"/>
					</g>
				</g>
				<g>
					<g>
						<path fill="#1D1D1B" d="M191.602,13.747c-0.397,2.192,0.11,4.337,1.251,6.057c1.672-1.211,2.898-3.042,3.294-5.234
							c0.397-2.192-0.11-4.337-1.251-6.057C193.225,9.724,191.999,11.555,191.602,13.747z"/>
					</g>
				</g>
				<g>
					<g>
						<path fill="#1D1D1B" d="M185.239,11.131c0.077,1.955,0.92,3.698,2.227,4.955c1.203-1.357,1.905-3.161,1.828-5.116
							s-0.92-3.698-2.227-4.956C185.864,7.372,185.162,9.176,185.239,11.131z"/>
					</g>
				</g>
				<g>
					<g>
						<path fill="#1D1D1B" d="M185.162,23.43c1.441-0.035,2.734-0.637,3.675-1.585c-0.986-0.901-2.307-1.439-3.748-1.403
							s-2.734,0.637-3.675,1.585C182.399,22.927,183.721,23.465,185.162,23.43z"/>
					</g>
				</g>
				<g>
					<g>
						<path fill="#1D1D1B" d="M179.693,19.522c1.764-0.043,3.347-0.78,4.499-1.941c-1.207-1.103-2.825-1.761-4.589-1.718
							c-1.764,0.043-3.347,0.78-4.499,1.941C176.312,18.907,177.929,19.565,179.693,19.522z"/>
					</g>
				</g>
				<g>
					<g>
						<path fill="#1D1D1B" d="M178.734,13.28c1.529,0.882,3.264,1.077,4.851,0.686c-0.456-1.571-1.494-2.974-3.023-3.856
							c-1.529-0.882-3.264-1.077-4.851-0.686C176.167,10.995,177.206,12.399,178.734,13.28z"/>
					</g>
				</g>
			</g>
		</g>
		<g>
			<g>
				<g>
					<path fill="#1D1D1B" d="M227.621,50.681h-0.802c-2.004,0-3.482,1.403-3.482,3.282c0,2.279,1.741,3.281,3.031,3.281h1.253v1.102
						h-1.253c-2.442,0-4.258-1.879-4.258-4.384c0-2.129,1.741-4.384,4.584-4.384h0.927V50.681z"/>
				</g>
			</g>
			<g>
				<g>
					<path fill="#1D1D1B" d="M231.783,52.209c1.666,0,3.119,1.278,3.119,3.131c0,1.854-1.453,3.131-3.119,3.131
						c-1.666,0-3.119-1.278-3.119-3.131C228.664,53.486,230.117,52.209,231.783,52.209z M231.415,57.419
						c1.14,0,1.966-0.852,1.966-2.079c0-1.227-0.827-2.079-1.966-2.079c-1.14,0-1.966,0.852-1.966,2.079
						C229.449,56.567,230.275,57.419,231.415,57.419z"/>
				</g>
			</g>
			<g>
				<g>
					<path fill="#1D1D1B" d="M235.46,58.346v-3.507c0-1.578,1.102-2.63,2.568-2.63s2.568,1.052,2.568,2.63v3.507h-1.102v-3.507
						c0-0.927-0.676-1.578-1.465-1.578c-0.789,0-1.465,0.651-1.465,1.578v3.507H235.46z"/>
				</g>
			</g>
			<g>
				<g>
					<path fill="#1D1D1B" d="M241.722,58.346v-3.507c0-1.578,1.102-2.63,2.568-2.63c1.465,0,2.568,1.052,2.568,2.63v3.507h-1.102
						v-3.507c0-0.927-0.676-1.578-1.465-1.578c-0.789,0-1.465,0.651-1.465,1.578v3.507H241.722z"/>
				</g>
			</g>
			<g>
				<g>
					<path fill="#1D1D1B" d="M250.13,56.367l-0.451-0.877l2.968-1.653c-0.376-0.376-0.689-0.576-1.365-0.576
						c-1.14,0-1.967,0.852-1.967,2.079c0,1.227,0.827,2.079,1.967,2.079c1.303,0,1.791-0.776,2.016-1.879l1.115,0.138
						c-0.125,1.591-1.403,2.793-3.131,2.793c-1.666,0-3.119-1.278-3.119-3.131c0-1.854,1.453-3.131,3.119-3.131
						c1.403,0,2.342,0.739,2.906,1.904L250.13,56.367z"/>
				</g>
			</g>
			<g>
				<g>
					<path fill="#1D1D1B" d="M259.361,53.386h-0.852c-1.04,0-2.067,0.676-2.067,1.954c0,1.277,1.027,1.954,2.067,1.954h0.852v1.052
						h-1.052c-1.403,0-3.019-1.077-3.019-3.006c0-1.929,1.616-3.006,3.019-3.006h1.052V53.386z"/>
				</g>
			</g>
			<g>
				<g>
					<path fill="#1D1D1B" d="M263.619,53.386h-2.154v3.156c0,0.564,0.263,0.751,0.827,0.751h1.328v1.052h-1.478
						c-1.127,0-1.779-0.751-1.779-1.941v-5.574h1.102v1.503h2.154V53.386z"/>
				</g>
			</g>
			<g>
				<g>
					<path fill="#1D1D1B" d="M265.535,50.33c0.426,0,0.664,0.326,0.664,0.664s-0.238,0.664-0.664,0.664
						c-0.426,0-0.664-0.326-0.664-0.664S265.109,50.33,265.535,50.33z M264.983,58.346v-6.012h1.102v6.012H264.983z"/>
				</g>
			</g>
			<g>
				<g>
					<path fill="#1D1D1B" d="M267.839,58.346v-3.507c0-1.578,1.102-2.63,2.568-2.63s2.568,1.052,2.568,2.63v3.507h-1.102v-3.507
						c0-0.927-0.676-1.578-1.465-1.578c-0.789,0-1.465,0.651-1.465,1.578v3.507H267.839z"/>
				</g>
			</g>
			<g>
				<g>
					<path fill="#1D1D1B" d="M278.459,58.071c-0.413,0.225-1.002,0.401-1.415,0.401c-1.753,0-3.106-1.303-3.106-3.056
						c0-1.804,1.227-3.206,3.106-3.206c1.829,0,2.956,1.478,2.956,2.981v2.68c0,2.254-1.378,3.332-3.144,3.332
						c-0.676,0-1.34-0.138-1.979-0.351l0.263-1.002c0.551,0.15,1.102,0.301,1.666,0.301c0.989,0,2.092-0.438,2.092-1.904V55.44
						c0-1.353-0.877-2.179-1.904-2.179c-1.315,0-1.954,1.04-1.954,2.217s0.877,1.941,2.016,1.941c0.501,0,0.977-0.238,1.403-0.488
						V58.071z"/>
				</g>
			</g>
		</g>
		<g>
			<g>
				<g>
					<path fill="#1D1D1B" d="M222.297,70.863v-7.765c0-0.777,0.451-1.077,1.027-1.077c0.676,0,0.914,0.401,1.34,1.29l2.818,5.824
						h0.025v-7.039h1.177v8.003c0,0.476-0.288,0.839-0.902,0.839c-0.564,0-0.839-0.175-1.165-0.852l-3.119-6.413h-0.025v7.189
						H222.297z"/>
				</g>
			</g>
			<g>
				<g>
					<path fill="#1D1D1B" d="M234.684,70.863v-3.382c0-1.127-0.952-1.703-1.954-1.703c-1.215,0-1.979,0.965-1.979,2.104
						c0,1.115,0.814,2.054,1.967,2.054c0.626,0,1.14-0.351,1.516-0.827v1.303c-0.438,0.326-0.864,0.576-1.628,0.576
						c-1.728,0-2.956-1.428-2.956-3.194c0-1.716,1.177-3.069,3.106-3.069c1.854,0,3.031,1.127,3.031,2.856v3.281H234.684z"/>
				</g>
			</g>
			<g>
				<g>
					<path fill="#1D1D1B" d="M240.65,65.903h-2.154v3.156c0,0.564,0.263,0.752,0.827,0.752h1.328v1.052h-1.478
						c-1.127,0-1.778-0.751-1.778-1.941v-5.573h1.102v1.503h2.154V65.903z"/>
				</g>
			</g>
			<g>
				<g>
					<path fill="#1D1D1B" d="M246.524,64.851v3.507c0,1.578-1.102,2.63-2.568,2.63c-1.465,0-2.568-1.052-2.568-2.63v-3.507h1.102
						v3.507c0,0.927,0.676,1.578,1.465,1.578c0.789,0,1.465-0.651,1.465-1.578v-3.507H246.524z"/>
				</g>
			</g>
			<g>
				<g>
					<path fill="#1D1D1B" d="M247.638,64.851h1.052v0.689h0.025c0.376-0.589,0.889-0.814,1.628-0.814h0.25v1.052h-0.163
						c-1.065,0-1.691,0.651-1.691,2.28v2.805h-1.102V64.851z"/>
				</g>
			</g>
			<g>
				<g>
					<path fill="#1D1D1B" d="M252.911,68.884l-0.451-0.877l2.968-1.653c-0.376-0.376-0.689-0.576-1.365-0.576
						c-1.14,0-1.966,0.852-1.966,2.079c0,1.227,0.827,2.079,1.966,2.079c1.303,0,1.791-0.777,2.016-1.879l1.115,0.138
						c-0.125,1.591-1.403,2.793-3.131,2.793c-1.666,0-3.119-1.278-3.119-3.131c0-1.854,1.453-3.131,3.119-3.131
						c1.403,0,2.342,0.739,2.906,1.904L252.911,68.884z"/>
				</g>
			</g>
		</g>
	</g>
</g>
</svg>
