<?xml version="1.0" encoding="utf-8"?>
<!-- Generator: Adobe Illustrator 17.0.0, SVG Export Plug-In . SVG Version: 6.00 Build 0)  -->
<!DOCTYPE svg PUBLIC "-//W3C//DTD SVG 1.1//EN" "http://www.w3.org/Graphics/SVG/1.1/DTD/svg11.dtd">
<svg version="1.1" id="Capa_1" xmlns="http://www.w3.org/2000/svg" xmlns:xlink="http://www.w3.org/1999/xlink" x="0px" y="0px"
	 width="924px" height="70.674px" viewBox="0 0 924 70.674" enable-background="new 0 0 924 70.674" xml:space="preserve">
<g>
	<g>
		<g>
			<g>
				<path fill="#1D1D1B" d="M0.021,19.939h38.093v29.56l0.022,0.872c0,10.604-8.538,19.193-19.069,19.193
					C8.532,69.564,0,60.975,0,50.371l0.022-0.872V19.939z M3.678,31.614c0.541,2.548,4.391,5.153,6.802,0L7.05,28.399L3.678,31.614z
					 M4.378,28.092l-0.005,1.593l1.754-1.582L4.378,28.092z M9.789,28.084H8.04l1.749,1.585V28.084z M3.678,45.259
					c0.541,2.548,4.391,5.155,6.802,0l-3.431-3.21L3.678,45.259z M4.378,41.734L4.372,43.33l1.754-1.596H4.378z M9.789,41.734H8.04
					l1.749,1.585V41.734z M27.647,45.259c0.541,2.548,4.397,5.155,6.81,0l-3.436-3.21L27.647,45.259z M28.347,41.745l-0.005,1.585
					l1.76-1.585H28.347z M33.763,41.734h-1.749l1.749,1.585V41.734z M27.647,31.614c0.541,2.548,4.397,5.153,6.81,0l-3.436-3.215
					L27.647,31.614z M28.347,28.092l-0.005,1.593l1.76-1.582L28.347,28.092z M33.763,28.084h-1.749l1.749,1.585V28.084z
					 M20.487,23.838c0-0.788-0.638-1.429-1.421-1.429c-0.783,0-1.423,0.64-1.423,1.429H20.487z M17.659,26.811h2.812v-1.908h-2.812
					V26.811z M16.055,28.14v3.347h2.349v-1.501h1.152v1.501h2.521V28.14H16.055z M23.024,32.873l-0.401-0.576h-6.999l-0.519,0.576
					H23.024z M7.997,56.665h22.147v-1.727H7.997V56.665z M16.214,63.308l-0.164-1.246l-2.449-0.904l-0.073-0.883l-1.044,0.062
					l0.046,1.173l-0.546,0.382l0.535,0.788l0.673-0.546L16.214,63.308z M16.392,64.253l-3.132,0.815l-0.603-0.616l-0.624,0.726
					l0.503,0.436l-0.178,1.044l1.039,0.175l0.159-0.745l2.89-0.721L16.392,64.253z M21.846,63.133l3.081-0.993l0.64,0.589
					l0.579-0.761l-0.522-0.417l0.11-1.17l-1.039-0.116l-0.121,0.877l-2.497,0.767L21.846,63.133z M21.609,64.075l-0.116,1.109
					l2.849,0.877l0.116,0.761l1.049-0.116l-0.121-1.052l0.527-0.414l-0.584-0.756l-0.635,0.584L21.609,64.075z M17.245,64.358
					c0,0.926,0.802,1.671,1.797,1.671c0.982,0,1.789-0.745,1.789-1.671L20.78,63.97l-0.53,0.266v0.778h-2.43v-0.799l-0.519-0.272
					L17.245,64.358z M16.346,61.247c0,1.262,0.85,2.317,2.013,2.623v0.662h1.308v-0.654c1.187-0.283,2.064-1.353,2.064-2.632
					c0-1.496-1.203-2.71-2.688-2.71C17.549,58.538,16.346,59.751,16.346,61.247 M23.477,48.837l-8.823,3.53v1.754h2.233v-2.239
					h0.977v2.239h2.508v-2.239h0.971v2.239h2.134V48.837z M23.477,44.293l-8.823,3.536v3.514l8.823-3.53V44.293z M23.477,39.754
					l-8.823,3.53v3.519l8.823-3.536V39.754z M23.477,35.204l-8.823,3.536v3.519l8.823-3.536V35.204z M14.654,33.705v4.009
					l8.823-3.53v-0.479H14.654z"/>
			</g>
			<g>
				<rect x="8.395" y="16.471" fill="#1D1D1B" width="21.348" height="2.08"/>
			</g>
			<g>
				<rect x="16.885" y="42.574" fill="#1D1D1B" width="0.974" height="1.504"/>
			</g>
			<g>
				<rect x="20.385" y="42.434" fill="#1D1D1B" width="0.974" height="1.501"/>
			</g>
			<g>
				<rect x="16.885" y="47.119" fill="#1D1D1B" width="0.974" height="1.504"/>
			</g>
			<g>
				<rect x="20.415" y="46.984" fill="#1D1D1B" width="0.974" height="1.501"/>
			</g>
			<g>
				<rect x="16.885" y="38.013" fill="#1D1D1B" width="0.974" height="1.504"/>
			</g>
			<g>
				<rect x="20.385" y="37.898" fill="#1D1D1B" width="0.974" height="1.504"/>
			</g>
			<g>
				<path fill="#1D1D1B" d="M17.698,15.142V8.27c0,0-1.066-1.518-3-1.13c-2.365,0.479-2.064,3.382-0.231,6.926l0.552,1.082h-2.559
					l-1.235-2.933c0,0-1.246-2.863-0.126-4.491c0,0-0.576-0.726-1.937-0.535c-1.472,0.226-2.196,1.722-1.235,3.31
					c0,0,0.42,0.794,1.722,2.858l1.224,1.781l-2.72,0.005l-2.29-3.409c0,0-1.913-2.89,0.355-5.207c0,0,1.426-1.652,4.189-1.114
					c0,0,1.313,0.215,1.827,0.818c0,0,0.958-1.025,3.132-0.888c0,0,2.26,0.027,3.7,1.515c1.445-1.445,3.697-1.515,3.697-1.515
					c2.177-0.137,3.132,0.888,3.132,0.888c0.517-0.603,1.835-0.818,1.835-0.818c2.758-0.538,4.181,1.114,4.181,1.114
					c2.276,2.317,0.358,5.207,0.358,5.207l-2.29,3.409l-2.718-0.005l1.219-1.781c1.308-2.064,1.727-2.858,1.727-2.858
					c0.958-1.588,0.237-3.084-1.238-3.31c-1.362-0.191-1.94,0.535-1.94,0.535c1.119,1.628-0.126,4.491-0.126,4.491l-1.23,2.933
					h-2.564l0.552-1.082c1.84-3.544,2.139-6.447-0.226-6.926c-1.932-0.387-3.006,1.13-3.006,1.13v6.872h-0.425h-1.875H17.698z"/>
			</g>
			<g>
				<path fill="#1D1D1B" d="M19.435,61.953c0,0.441,0.35,0.794,0.786,0.794c0.433,0,0.783-0.352,0.783-0.794
					c0-0.436-0.35-0.788-0.783-0.788C19.784,61.164,19.435,61.517,19.435,61.953 M17.069,61.942c0,0.436,0.352,0.794,0.783,0.794
					c0.441,0,0.788-0.358,0.788-0.794s-0.347-0.794-0.788-0.794C17.422,61.148,17.069,61.506,17.069,61.942 M19.496,63.519
					l-0.226-0.393l-0.231-0.401l-0.231,0.401l-0.231,0.393h0.463H19.496z"/>
			</g>
			<g>
				<polygon fill="#1D1D1B" points="21.711,1.919 19.792,1.919 19.792,0 18.307,0 18.307,1.919 16.383,1.919 16.383,3.412 
					18.307,3.412 18.307,5.328 19.792,5.328 19.792,3.412 21.711,3.412 				"/>
			</g>
			<g>
				<rect x="16.885" y="42.574" fill="#1D1D1B" width="0.974" height="1.504"/>
			</g>
			<g>
				<rect x="20.385" y="42.434" fill="#1D1D1B" width="0.974" height="1.501"/>
			</g>
			<g>
				<rect x="16.885" y="47.119" fill="#1D1D1B" width="0.974" height="1.504"/>
			</g>
			<g>
				<rect x="20.415" y="46.984" fill="#1D1D1B" width="0.974" height="1.501"/>
			</g>
			<g>
				<rect x="16.885" y="38.013" fill="#1D1D1B" width="0.974" height="1.504"/>
			</g>
			<g>
				<rect x="20.385" y="37.898" fill="#1D1D1B" width="0.974" height="1.504"/>
			</g>
			<g>
				<path fill="#1D1D1B" d="M19.435,61.953c0,0.441,0.35,0.794,0.786,0.794c0.433,0,0.783-0.352,0.783-0.794
					c0-0.436-0.35-0.788-0.783-0.788C19.784,61.164,19.435,61.517,19.435,61.953 M17.069,61.942c0,0.436,0.352,0.794,0.783,0.794
					c0.441,0,0.788-0.358,0.788-0.794s-0.347-0.794-0.788-0.794C17.422,61.148,17.069,61.506,17.069,61.942 M19.496,63.519
					l-0.226-0.393l-0.231-0.401l-0.231,0.401l-0.231,0.393h0.463H19.496z"/>
			</g>
		</g>
		<g>
			<path fill="#1D1D1B" d="M66.832,56.492c-0.63,0.331-1.87,0.562-2.928,0.562c-2.841,0-4.523-2.058-4.523-4.792
				c0-2.753,1.719-4.865,4.472-4.865c0.955,0,1.87,0.132,2.884,0.708l0.188-2.268c-0.971-0.385-2.139-0.557-3.022-0.557
				c-4.523,0-7.319,2.575-7.319,7.176c0,4.539,3,6.716,7.319,6.716c1.014,0,2.072-0.194,3.043-0.425L66.832,56.492z"/>
		</g>
		<g>
			<g>
				<path fill="#1D1D1B" d="M70.623,53.745c0-1.483,0.799-2.949,2.465-2.949c1.682,0,2.484,1.429,2.484,2.949
					c0,1.655-0.514,3.425-2.484,3.425C71.137,57.17,70.623,55.378,70.623,53.745 M67.943,54.054c0,2.847,1.897,5.118,5.145,5.118
					c3.267,0,5.158-2.271,5.158-5.118c0-3.275-2.239-5.255-5.158-5.255C70.182,48.799,67.943,50.779,67.943,54.054"/>
			</g>
		</g>
		<g>
			<path fill="#1D1D1B" d="M80.142,58.939H82.7V54.09c0-1.273,0.404-3.296,2.26-3.296c1.639,0,1.66,1.641,1.66,2.855v5.29h2.564
				v-6.253c0-2.233-1.014-3.888-3.347-3.888c-1.335,0-2.427,0.441-3.232,1.577h-0.038v-1.345h-2.427V58.939z"/>
		</g>
		<g>
			<path fill="#1D1D1B" d="M98.321,49.127c-0.705-0.21-1.45-0.331-2.486-0.331c-3.073,0-4.76,2.276-4.76,5.139
				c0,3.022,1.628,5.239,4.859,5.239c1.047,0,1.814-0.1,2.559-0.331l-0.116-2.139c-0.441,0.194-1.238,0.463-1.97,0.463
				c-1.797,0-2.653-1.405-2.653-3.232c0-1.865,1.014-3.137,2.597-3.137c0.788,0,1.281,0.159,1.744,0.369L98.321,49.127z"/>
		</g>
		<g>
			<g>
				<path fill="#1D1D1B" d="M107.976,56.284c-0.955,0.544-2.021,1.001-3.267,1.001c-1.588,0-2.696-0.904-2.812-2.497h6.805
					c0-3.468-1.031-5.984-4.682-5.984c-3.059,0-4.566,2.36-4.566,5.233c0,3.248,1.892,5.134,5.139,5.134
					c1.375,0,2.449-0.274,3.382-0.788V56.284z M101.898,53.012c0.116-1.324,0.84-2.327,2.276-2.327c1.434,0,2.007,1.076,2.085,2.327
					H101.898z"/>
			</g>
		</g>
		<g>
			<rect x="110.662" y="44.511" fill="#1D1D1B" width="2.564" height="14.428"/>
		</g>
		<g>
			<rect x="115.863" y="44.511" fill="#1D1D1B" width="2.559" height="14.428"/>
		</g>
		<g>
			<g>
				<path fill="#1D1D1B" d="M123.045,53.745c0-1.483,0.805-2.949,2.47-2.949c1.682,0,2.478,1.429,2.478,2.949
					c0,1.655-0.514,3.425-2.478,3.425C123.564,57.17,123.045,55.378,123.045,53.745 M120.37,54.054c0,2.847,1.892,5.118,5.145,5.118
					c3.267,0,5.158-2.271,5.158-5.118c0-3.275-2.239-5.255-5.158-5.255C122.609,48.799,120.37,50.779,120.37,54.054"/>
			</g>
		</g>
		<g>
			<g>
				<path fill="#1D1D1B" d="M144.323,58.94h2.486V44.512h-2.564v5.675h-0.038c-0.767-0.947-1.666-1.388-2.946-1.388
					c-3.016,0-4.125,2.427-4.125,5.155c0,2.718,1.109,5.212,4.125,5.212c1.208,0,2.26-0.385,3.022-1.34h0.04V58.94z M139.811,53.954
					c0-1.324,0.457-3.159,2.123-3.159c1.644,0,2.29,1.776,2.29,3.159c0,1.407-0.552,3.21-2.252,3.21
					C140.29,57.164,139.811,55.321,139.811,53.954"/>
			</g>
		</g>
		<g>
			<path fill="#1D1D1B" d="M174.89,56.492c-0.63,0.331-1.875,0.562-2.928,0.562c-2.841,0-4.523-2.058-4.523-4.792
				c0-2.753,1.719-4.865,4.467-4.865c0.955,0,1.875,0.132,2.89,0.708l0.188-2.268c-0.971-0.385-2.139-0.557-3.022-0.557
				c-4.523,0-7.319,2.575-7.319,7.176c0,4.539,3.006,6.716,7.319,6.716c1.014,0,2.066-0.194,3.043-0.425L174.89,56.492z"/>
		</g>
		<g>
			<g>
				<path fill="#1D1D1B" d="M178.678,53.745c0-1.483,0.799-2.949,2.465-2.949c1.682,0,2.484,1.429,2.484,2.949
					c0,1.655-0.514,3.425-2.484,3.425C179.197,57.17,178.678,55.378,178.678,53.745 M175.998,54.054
					c0,2.847,1.897,5.118,5.145,5.118c3.267,0,5.164-2.271,5.164-5.118c0-3.275-2.244-5.255-5.164-5.255
					C178.237,48.799,175.998,50.779,175.998,54.054"/>
			</g>
		</g>
		<g>
			<path fill="#1D1D1B" d="M188.256,58.939h2.559v-3.635c0-1.423,0-4.041,2.085-4.041c0.457,0,0.915,0.073,1.146,0.21v-2.594
				c-0.269-0.081-0.53-0.081-0.783-0.081c-1.528,0-2.58,1.561-2.696,2.481h-0.035v-2.249h-2.276V58.939z"/>
		</g>
		<g>
			<path fill="#1D1D1B" d="M204.559,49.029h-2.559v4.849c0,1.267-0.404,3.291-2.26,3.291c-1.639,0-1.66-1.636-1.66-2.849v-5.29
				h-2.564v6.253c0,2.233,1.014,3.888,3.347,3.888c1.34,0,2.449-0.622,3.232-1.577h0.038v1.345h2.427V49.029z"/>
		</g>
		<g>
			<g>
				<path fill="#1D1D1B" d="M207.087,58.94h2.559v-4.851c0-1.27,0.404-3.288,2.258-3.288c1.639,0,1.66,1.633,1.66,2.847v5.293h2.559
					v-6.253c0-2.233-1.009-3.888-3.342-3.888c-1.34,0-2.427,0.441-3.232,1.577h-0.035V49.03h-2.427V58.94z M209.266,47.337
					c0-0.369,0.264-0.845,0.936-0.845c0.361,0,0.818,0.172,1.297,0.361c0.498,0.196,0.934,0.347,1.644,0.347
					c1.187,0,1.854-1.039,1.854-2.327h-1.033c0,0.522-0.264,0.942-0.837,0.942c-0.519,0-0.904-0.231-1.397-0.42
					c-0.5-0.196-0.993-0.385-1.55-0.385c-1.125,0-1.951,1.17-1.951,2.327H209.266z"/>
			</g>
		</g>
		<g>
			<g>
				<path fill="#1D1D1B" d="M220.467,56.07c0-1.512,1.703-1.711,2.844-1.711h1.114c0,0.772-0.116,1.48-0.538,2.037
					c-0.398,0.541-1.006,0.888-1.795,0.888C221.172,57.283,220.467,56.915,220.467,56.07 M219.17,51.762
					c0.856-0.651,1.943-1.076,3.038-1.076c1.507,0,2.217,0.541,2.217,2.131h-1.415c-1.071,0-2.333,0.102-3.31,0.579
					c-0.971,0.484-1.682,1.351-1.682,2.833c0,1.881,1.703,2.941,3.441,2.941c1.168,0,2.449-0.619,3.038-1.711h0.043
					c0.019,0.304,0.019,0.961,0.11,1.48h2.258c-0.057-0.767-0.094-1.458-0.116-2.212c-0.019-0.729-0.04-1.48-0.04-2.484v-1.267
					c0-2.928-1.24-4.176-4.241-4.176c-1.087,0-2.427,0.288-3.42,0.751L219.17,51.762z"/>
			</g>
		</g>
		<g>
			<g>
				<path fill="#1D1D1B" d="M55.038,37.414h2.774l1.162-3.084h5.411l1.146,3.084h2.962l-5.239-13.429h-3.014L55.038,37.414z
					 M63.641,32.218h-3.899l1.929-5.543h0.035L63.641,32.218z"/>
			</g>
		</g>
		<g>
			<path fill="#1D1D1B" d="M71.258,27.503H68.43l3.767,10.408c0,1.063-0.635,1.771-1.663,1.771c-0.632,0-0.996-0.057-1.321-0.172
				l-0.172,1.902c0.595,0.178,1.208,0.272,1.819,0.272c2.675,0,3.267-2.153,4.087-4.351l3.689-9.829h-2.602l-2.371,7.23h-0.035
				L71.258,27.503z"/>
		</g>
		<g>
			<path fill="#1D1D1B" d="M89.098,27.503h-2.559v4.849c0,1.267-0.398,3.291-2.26,3.291c-1.639,0-1.66-1.636-1.66-2.849v-5.29
				h-2.564v6.253c0,2.233,1.02,3.888,3.347,3.888c1.34,0,2.443-0.616,3.232-1.582h0.038v1.351h2.427V27.503z"/>
		</g>
		<g>
			<path fill="#1D1D1B" d="M91.623,37.413h2.559v-4.849c0-1.273,0.404-3.291,2.26-3.291c1.639,0,1.66,1.636,1.66,2.849v5.29h2.564
				v-6.259c0-2.228-1.014-3.883-3.347-3.883c-1.34,0-2.427,0.441-3.226,1.577h-0.043v-1.345h-2.427V37.413z"/>
		</g>
		<g>
			<path fill="#1D1D1B" d="M104.03,34.429c0,1.964,1.109,3.21,3.116,3.21c0.761,0,1.362-0.073,1.897-0.226l-0.081-2.042
				c-0.266,0.172-0.708,0.266-1.165,0.266c-0.977,0-1.203-0.788-1.203-1.628v-4.623h2.274v-1.884h-2.274v-2.809l-2.564,0.823v1.986
				h-1.892v1.884h1.892V34.429z"/>
		</g>
		<g>
			<g>
				<path fill="#1D1D1B" d="M112.328,34.542c0-1.518,1.703-1.711,2.844-1.711h1.114c0,0.772-0.116,1.48-0.535,2.042
					c-0.406,0.535-1.014,0.883-1.797,0.883C113.033,35.756,112.328,35.395,112.328,34.542 M111.031,30.234
					c0.856-0.651,1.945-1.076,3.038-1.076c1.507,0,2.217,0.541,2.217,2.134h-1.415c-1.071,0-2.333,0.1-3.31,0.581
					c-0.971,0.479-1.682,1.345-1.682,2.828c0,1.881,1.703,2.941,3.441,2.941c1.168,0,2.449-0.613,3.038-1.711h0.043
					c0.022,0.309,0.022,0.961,0.11,1.48h2.258c-0.057-0.767-0.094-1.458-0.116-2.212c-0.019-0.729-0.04-1.48-0.04-2.484v-1.267
					c0-2.928-1.24-4.176-4.241-4.176c-1.087,0-2.427,0.288-3.42,0.751L111.031,30.234z"/>
			</g>
		</g>
		<g>
			<path fill="#1D1D1B" d="M120.992,37.413h2.559v-4.814c0-1.286,0.215-3.326,1.918-3.326c1.472,0,1.472,1.308,1.472,2.233v5.906
				h2.556v-4.814c0-1.286,0.213-3.326,1.913-3.326c1.472,0,1.472,1.308,1.472,2.233v5.906h2.559v-6.259
				c0-2.206-0.689-3.883-3.116-3.883c-1.203,0-2.486,0.557-3.073,1.752c-0.557-1.23-1.531-1.752-2.906-1.752
				c-0.958,0-2.123,0.406-2.928,1.614h-0.035v-1.383h-2.392V37.413z"/>
		</g>
		<g>
			<g>
				<path fill="#1D1D1B" d="M137.978,37.416h2.559v-9.91h-2.559V37.416z M137.978,25.692h2.559V23.23h-2.559V25.692z"/>
			</g>
		</g>
		<g>
			<g>
				<path fill="#1D1D1B" d="M151.011,34.757c-0.955,0.535-2.026,1.004-3.267,1.004c-1.588,0-2.696-0.909-2.812-2.508h6.805
					c0-3.463-1.036-5.984-4.682-5.984c-3.059,0-4.566,2.371-4.566,5.239c0,3.253,1.892,5.139,5.139,5.139
					c1.375,0,2.449-0.274,3.382-0.799V34.757z M144.933,31.488c0.116-1.329,0.839-2.333,2.276-2.333
					c1.434,0,2.007,1.076,2.085,2.333H144.933z"/>
			</g>
		</g>
		<g>
			<path fill="#1D1D1B" d="M153.638,37.413h2.559v-4.849c0-1.273,0.404-3.291,2.26-3.291c1.639,0,1.66,1.636,1.66,2.849v5.29h2.564
				v-6.259c0-2.228-1.014-3.883-3.347-3.883c-1.34,0-2.427,0.441-3.226,1.577h-0.043v-1.345h-2.427V37.413z"/>
		</g>
		<g>
			<path fill="#1D1D1B" d="M166.044,34.429c0,1.964,1.109,3.21,3.116,3.21c0.767,0,1.362-0.073,1.897-0.226l-0.078-2.042
				c-0.269,0.172-0.71,0.266-1.173,0.266c-0.971,0-1.203-0.788-1.203-1.628v-4.623h2.282v-1.884h-2.282v-2.809l-2.559,0.823v1.986
				h-1.892v1.884h1.892V34.429z"/>
		</g>
		<g>
			<g>
				<path fill="#1D1D1B" d="M174.572,32.218c0-1.483,0.799-2.944,2.465-2.944c1.679,0,2.484,1.423,2.484,2.944
					c0,1.655-0.514,3.425-2.484,3.425C175.092,35.643,174.572,33.851,174.572,32.218 M171.892,32.527
					c0,2.841,1.897,5.118,5.145,5.118c3.267,0,5.158-2.276,5.158-5.118c0-3.275-2.239-5.255-5.158-5.255
					C174.131,27.272,171.892,29.253,171.892,32.527"/>
			</g>
		</g>
		<g>
			<g>
				<path fill="#1D1D1B" d="M195.846,37.413h2.486V22.98h-2.564v5.675h-0.038c-0.761-0.942-1.66-1.383-2.941-1.383
					c-3.022,0-4.13,2.427-4.13,5.155c0,2.712,1.109,5.212,4.13,5.212c1.203,0,2.26-0.385,3.016-1.34h0.04V37.413z M191.339,32.427
					c0-1.324,0.452-3.154,2.118-3.154c1.644,0,2.295,1.771,2.295,3.154c0,1.407-0.557,3.21-2.252,3.21
					C191.813,35.637,191.339,33.794,191.339,32.427"/>
			</g>
		</g>
		<g>
			<g>
				<path fill="#1D1D1B" d="M208.75,34.757c-0.955,0.535-2.021,1.004-3.272,1.004c-1.582,0-2.691-0.909-2.806-2.508h6.81
					c0-3.463-1.036-5.984-4.687-5.984c-3.059,0-4.572,2.371-4.572,5.239c0,3.253,1.897,5.139,5.145,5.139
					c1.375,0,2.449-0.274,3.382-0.799V34.757z M202.671,31.488c0.116-1.329,0.84-2.333,2.276-2.333c1.434,0,2.007,1.076,2.08,2.333
					H202.671z"/>
			</g>
		</g>
		<g>
			<g>
				<path fill="#1D1D1B" d="M215.376,37.461h2.769l1.168-3.078h5.411l1.146,3.078h2.962l-5.239-13.429h-3.019L215.376,37.461z
					 M223.979,32.265h-3.899l1.929-5.543h0.035L223.979,32.265z"/>
			</g>
		</g>
		<g>
			<path fill="#1D1D1B" d="M243.824,35.016c-0.63,0.331-1.875,0.557-2.928,0.557c-2.847,0-4.523-2.058-4.523-4.787
				c0-2.753,1.714-4.876,4.467-4.876c0.955,0,1.875,0.137,2.884,0.721l0.194-2.271c-0.971-0.39-2.142-0.562-3.022-0.562
				c-4.523,0-7.319,2.58-7.319,7.176c0,4.545,3,6.716,7.319,6.716c1.014,0,2.066-0.194,3.038-0.42L243.824,35.016z"/>
		</g>
		<g>
			<g>
				<path fill="#1D1D1B" d="M247.607,32.265c0-1.477,0.805-2.944,2.47-2.944c1.679,0,2.484,1.426,2.484,2.944
					c0,1.655-0.519,3.425-2.484,3.425C248.126,35.69,247.607,33.898,247.607,32.265 M244.932,32.575
					c0,2.847,1.892,5.118,5.145,5.118c3.267,0,5.158-2.271,5.158-5.118c0-3.275-2.239-5.255-5.158-5.255
					C247.171,27.32,244.932,29.3,244.932,32.575"/>
			</g>
		</g>
		<g>
			<path fill="#1D1D1B" d="M257.186,37.46h2.559v-3.635c0-1.423,0-4.041,2.085-4.041c0.457,0,0.92,0.078,1.152,0.21v-2.594
				c-0.274-0.075-0.535-0.075-0.783-0.075c-1.534,0-2.586,1.555-2.696,2.475h-0.04v-2.244h-2.276V37.46z"/>
		</g>
		<g>
			<path fill="#1D1D1B" d="M273.493,27.553h-2.559v4.843c0,1.273-0.404,3.296-2.26,3.296c-1.644,0-1.66-1.639-1.66-2.855v-5.285
				h-2.564v6.253c0,2.233,1.014,3.883,3.347,3.883c1.34,0,2.443-0.616,3.226-1.577h0.043v1.345h2.427V27.553z"/>
		</g>
		<g>
			<g>
				<path fill="#1D1D1B" d="M276.019,37.461h2.559v-4.846c0-1.275,0.398-3.293,2.258-3.293c1.644,0,1.66,1.633,1.66,2.847v5.293
					h2.564v-6.253c0-2.233-1.014-3.883-3.347-3.883c-1.335,0-2.427,0.436-3.226,1.577h-0.04v-1.345h-2.427V37.461z M278.198,25.859
					c0-0.369,0.269-0.845,0.936-0.845c0.361,0,0.818,0.172,1.302,0.361c0.492,0.196,0.934,0.352,1.639,0.352
					c1.187,0,1.854-1.044,1.854-2.333h-1.033c0,0.522-0.264,0.942-0.837,0.942c-0.519,0-0.899-0.231-1.391-0.42
					c-0.506-0.196-0.998-0.385-1.55-0.385c-1.13,0-1.956,1.17-1.956,2.327H278.198z"/>
			</g>
		</g>
		<g>
			<g>
				<path fill="#1D1D1B" d="M289.399,34.593c0-1.523,1.698-1.711,2.849-1.711h1.109c0,0.772-0.11,1.48-0.533,2.037
					c-0.404,0.541-1.017,0.888-1.8,0.888C290.11,35.806,289.399,35.44,289.399,34.593 M288.102,30.285
					c0.856-0.657,1.948-1.076,3.038-1.076c1.507,0,2.217,0.535,2.217,2.131h-1.415c-1.071,0-2.333,0.102-3.31,0.579
					c-0.971,0.479-1.682,1.351-1.682,2.828c0,1.886,1.703,2.946,3.441,2.946c1.168,0,2.449-0.619,3.043-1.717h0.038
					c0.019,0.309,0.019,0.966,0.11,1.485h2.258c-0.056-0.772-0.094-1.464-0.116-2.217c-0.019-0.729-0.04-1.48-0.04-2.478v-1.273
					c0-2.922-1.235-4.171-4.241-4.171c-1.087,0-2.427,0.288-3.42,0.745L288.102,30.285z"/>
			</g>
		</g>
		<g>
			<g>
				<path fill="#1D1D1B" d="M151.009,56.07c0-1.512,1.703-1.711,2.849-1.711h1.109c0,0.772-0.11,1.48-0.538,2.037
					c-0.398,0.541-1.006,0.888-1.795,0.888C151.719,57.283,151.009,56.915,151.009,56.07 M149.712,51.762
					c0.856-0.651,1.943-1.076,3.038-1.076c1.507,0,2.217,0.541,2.217,2.131h-1.415c-1.071,0-2.333,0.102-3.31,0.579
					c-0.971,0.484-1.682,1.351-1.682,2.833c0,1.881,1.703,2.941,3.441,2.941c1.168,0,2.449-0.619,3.043-1.711h0.038
					c0.013,0.304,0.013,0.961,0.11,1.48h2.258c-0.057-0.767-0.094-1.458-0.116-2.212c-0.019-0.729-0.04-1.48-0.04-2.484v-1.267
					c0-2.928-1.24-4.176-4.241-4.176c-1.087,0-2.427,0.288-3.42,0.751L149.712,51.762z"/>
			</g>
		</g>
		<g>
			<rect x="343.977" y="1.108" fill="#1D1D1B" width="2.543" height="69.566"/>
		</g>
		<g>
			<g>
				<g>
					<path fill="#1D1D1B" d="M486.197,32.948c-1.297,0.859-2.821,1.288-4.574,1.288c-1.699,0-3.175-0.366-4.426-1.1
						c-1.252-0.733-2.218-1.788-2.897-3.165c-0.68-1.377-1.019-2.995-1.019-4.855c0-1.86,0.339-3.478,1.019-4.855
						c0.679-1.377,1.645-2.432,2.897-3.165c1.252-0.733,2.718-1.1,4.399-1.1c1.771,0,3.259,0.367,4.466,1.1
						c1.207,0.734,2.079,1.815,2.615,3.246l-2.709,1.207c-0.358-1.055-0.876-1.828-1.556-2.32c-0.68-0.492-1.565-0.738-2.656-0.738
						c-1.663,0-2.991,0.586-3.984,1.757c-0.992,1.172-1.489,2.794-1.489,4.869c0,2.092,0.474,3.72,1.422,4.882
						c0.948,1.163,2.262,1.744,3.943,1.744c1.144,0,2.106-0.286,2.884-0.858c0.778-0.572,1.337-1.413,1.677-2.522l2.736,0.912
						C488.41,30.865,487.494,32.09,486.197,32.948z"/>
				</g>
				<g>
					<path fill="#1D1D1B" d="M503.03,22.138c1.18,1.234,1.77,2.942,1.77,5.124c0,2.182-0.59,3.89-1.77,5.124
						c-1.18,1.234-2.817,1.851-4.909,1.851c-2.092,0-3.729-0.617-4.909-1.851c-1.18-1.234-1.77-2.941-1.77-5.124
						c0-2.182,0.59-3.89,1.77-5.124c1.18-1.234,2.817-1.851,4.909-1.851C500.213,20.287,501.849,20.904,503.03,22.138z
						 M495.317,23.761c-0.653,0.814-0.979,1.981-0.979,3.501c0,1.52,0.326,2.687,0.979,3.501c0.653,0.814,1.587,1.22,2.803,1.22
						c1.216,0,2.155-0.411,2.817-1.234c0.661-0.822,0.992-1.985,0.992-3.487c0-1.502-0.331-2.664-0.992-3.487
						c-0.662-0.822-1.601-1.234-2.817-1.234C496.904,22.54,495.97,22.947,495.317,23.761z"/>
				</g>
				<g>
					<path fill="#1D1D1B" d="M516.871,20.555l-0.456,2.629c-0.411-0.232-0.975-0.349-1.69-0.349c-0.573,0-1.113,0.152-1.623,0.456
						c-0.51,0.304-0.93,0.76-1.261,1.368c-0.331,0.608-0.496,1.341-0.496,2.2v7.109h-2.87V20.555h2.441l0.241,2.414
						c0.751-1.788,2.164-2.683,4.238-2.683C516.021,20.287,516.513,20.377,516.871,20.555z"/>
				</g>
				<g>
					<path fill="#1D1D1B" d="M531.731,20.555v13.412h-2.549l-0.107-2.173c-0.912,1.628-2.504,2.441-4.775,2.441
						c-1.448,0-2.615-0.398-3.501-1.194c-0.885-0.795-1.328-2.016-1.328-3.662v-8.825h2.87v8.074c0,1.18,0.232,2.017,0.697,2.508
						c0.465,0.492,1.153,0.738,2.066,0.738c1.091,0,1.989-0.344,2.696-1.033c0.706-0.688,1.06-1.703,1.06-3.045v-7.243H531.731z"/>
				</g>
				<g>
					<path fill="#1D1D1B" d="M547.034,21.575c0.939,0.858,1.408,2.092,1.408,3.702v8.691h-2.87v-7.779
						c0-2.361-0.957-3.541-2.87-3.541c-1.002,0-1.86,0.345-2.575,1.033c-0.715,0.689-1.073,1.748-1.073,3.179v7.109h-2.87V20.555
						h2.548l0.134,2.226c0.447-0.84,1.064-1.466,1.851-1.878c0.787-0.411,1.681-0.617,2.682-0.617
						C544.884,20.287,546.096,20.716,547.034,21.575z M544.258,18.517c-0.519,0-0.952-0.094-1.301-0.282
						c-0.349-0.188-0.711-0.451-1.086-0.791c-0.304-0.25-0.536-0.425-0.698-0.523c-0.161-0.098-0.349-0.147-0.563-0.147
						c-0.34,0-0.604,0.147-0.791,0.443c-0.188,0.295-0.326,0.738-0.416,1.328h-1.958c0.161-2.539,1.225-3.809,3.192-3.809
						c0.5,0,0.916,0.09,1.247,0.268c0.331,0.179,0.702,0.447,1.113,0.805c0.304,0.251,0.536,0.425,0.697,0.523
						c0.161,0.099,0.34,0.148,0.536,0.148c0.357,0,0.63-0.143,0.818-0.429c0.188-0.286,0.326-0.724,0.416-1.314h1.958
						C547.262,17.256,546.207,18.517,544.258,18.517z"/>
				</g>
				<g>
					<path fill="#1D1D1B" d="M565.369,31.983l-0.188,1.931c-0.483,0.215-1.037,0.322-1.663,0.322c-0.769,0-1.381-0.152-1.838-0.456
						c-0.456-0.304-0.756-0.813-0.898-1.529c-0.412,0.626-1.019,1.113-1.824,1.462c-0.805,0.349-1.708,0.523-2.709,0.523
						c-1.305,0-2.36-0.304-3.165-0.912c-0.805-0.608-1.207-1.475-1.207-2.602c0-1.055,0.438-1.945,1.314-2.669
						c0.876-0.724,2.182-1.238,3.917-1.542l3.407-0.59v-0.724c0-0.822-0.241-1.471-0.724-1.945
						c-0.483-0.474-1.154-0.711-2.012-0.711c-1.77,0-2.924,0.805-3.46,2.414l-2.226-1.18c0.322-1.073,0.979-1.922,1.972-2.548
						c0.992-0.626,2.213-0.939,3.662-0.939c1.734,0,3.112,0.402,4.131,1.207c1.019,0.805,1.529,1.985,1.529,3.541v6.062
						c0,0.34,0.076,0.59,0.228,0.751c0.152,0.161,0.407,0.241,0.764,0.241C564.77,32.09,565.101,32.054,565.369,31.983z
						 M559.414,31.366c0.733-0.465,1.1-1.082,1.1-1.851v-1.61l-2.924,0.59c-0.93,0.179-1.619,0.429-2.066,0.751
						c-0.447,0.322-0.671,0.751-0.671,1.288c0,0.501,0.174,0.881,0.523,1.14c0.349,0.259,0.845,0.389,1.489,0.389
						C557.831,32.063,558.68,31.831,559.414,31.366z"/>
				</g>
				<g>
					<path fill="#1D1D1B" d="M483.233,58.557h-3.353l-6.572-17.704h3.058l4.131,11.776l1.073,3.514l1.073-3.487l4.131-11.803h3.031
						L483.233,58.557z"/>
				</g>
				<g>
					<path fill="#1D1D1B" d="M492.648,42.421c-0.34-0.313-0.51-0.755-0.51-1.328c0-0.572,0.17-1.01,0.51-1.314
						c0.34-0.304,0.814-0.456,1.422-0.456c0.608,0,1.077,0.152,1.408,0.456c0.331,0.304,0.496,0.742,0.496,1.314
						c0,0.572-0.166,1.015-0.496,1.328c-0.331,0.313-0.8,0.47-1.408,0.47C493.462,42.891,492.988,42.735,492.648,42.421z
						 M495.492,58.557h-2.87V45.144h2.87V58.557z"/>
				</g>
				<g>
					<path fill="#1D1D1B" d="M511.801,45.144l-5.338,13.413h-3.138l-5.365-13.413h3.165l3.782,11.079l3.89-11.079H511.801z"/>
				</g>
				<g>
					<path fill="#1D1D1B" d="M526.475,56.572l-0.188,1.931c-0.483,0.215-1.037,0.322-1.663,0.322c-0.769,0-1.381-0.152-1.838-0.456
						c-0.456-0.304-0.756-0.813-0.898-1.529c-0.412,0.626-1.019,1.113-1.824,1.462c-0.805,0.349-1.708,0.523-2.709,0.523
						c-1.305,0-2.36-0.304-3.165-0.912c-0.805-0.608-1.207-1.475-1.207-2.602c0-1.055,0.438-1.945,1.314-2.669
						c0.876-0.724,2.182-1.238,3.917-1.542l3.407-0.59v-0.724c0-0.822-0.241-1.471-0.724-1.945
						c-0.483-0.474-1.154-0.711-2.012-0.711c-1.77,0-2.924,0.805-3.46,2.414l-2.226-1.18c0.322-1.073,0.979-1.922,1.972-2.548
						c0.992-0.626,2.213-0.939,3.662-0.939c1.734,0,3.112,0.402,4.131,1.207c1.019,0.805,1.529,1.985,1.529,3.541v6.062
						c0,0.34,0.076,0.59,0.228,0.751c0.152,0.161,0.407,0.241,0.764,0.241C525.875,56.679,526.206,56.643,526.475,56.572z
						 M520.52,55.955c0.733-0.465,1.1-1.082,1.1-1.851v-1.609l-2.924,0.59c-0.93,0.179-1.619,0.429-2.066,0.751
						c-0.447,0.322-0.671,0.751-0.671,1.288c0,0.501,0.174,0.881,0.523,1.14c0.349,0.259,0.845,0.389,1.489,0.389
						C518.937,56.652,519.786,56.42,520.52,55.955z"/>
				</g>
			</g>
			<g>
				<path fill="#1D1D1B" d="M437.448,43.483c-2.153,2.759-5.501,4.539-9.272,4.539c-6.498,0-11.766-5.268-11.766-11.766
					c0-6.498,5.268-11.766,11.766-11.766c3.771,0,7.119,1.781,9.272,4.539l8.997-8.688c-4.443-5.096-10.978-8.321-18.269-8.321
					c-13.385,0-24.236,10.851-24.236,24.236c0,13.385,10.851,24.236,24.236,24.236c7.292,0,13.826-3.225,18.269-8.321
					L437.448,43.483z"/>
			</g>
			<g>
				<path fill="#1D1D1B" d="M462.982,22.811c0.411,0.106,0.673,0.48,0.631,0.902c-0.205,2.078-1.149,8.182-5.295,11.083
					s-10.451,1.869-12.473,1.349c-0.411-0.106-0.673-0.48-0.631-0.902c0.205-2.078,1.395-8.354,5.542-11.255
					S460.96,22.291,462.982,22.811z"/>
			</g>
			<g>
				<circle fill="#1D1D1B" cx="453.726" cy="44.233" r="4.687"/>
			</g>
		</g>
	</g>
	<g>
		<g>
			<g>
				<g>
					<path fill="#1D1D1B" d="M678.619,5.454c1.175,0.333,2.227,0.727,3.176,1.166l3.699,1.681c0.696,0.325,1.334,0.566,1.893,0.747
						c0.564,0.177,1.128,0.266,1.687,0.266c1.363,0,2.444-0.448,3.223-1.323c0.504-0.553,1.045-1.578,1.64-3.055h3.829
						c-0.611,3.01-1.77,5.653-3.473,7.951c-1.694,2.283-4.181,3.433-7.446,3.433c-0.904,0-1.835-0.105-2.748-0.333
						c-0.9-0.215-1.817-0.524-2.701-0.904l-2.663-1.139c-2.343-1.003-3.762-1.584-4.243-1.766c-0.492-0.188-0.989-0.266-1.542-0.266
						c-1.488,0-2.618,0.548-3.429,1.672c-0.474,0.604-0.871,1.511-1.215,2.737h-3.78c0.591-2.755,1.401-4.953,2.446-6.624
						c1.976-3.167,4.791-4.76,8.424-4.76C676.376,4.937,677.453,5.109,678.619,5.454"/>
				</g>
				<g>
					<path fill="#1D1D1B" d="M660.151,44.89v-0.125c0-12.774,9.813-22.773,23.089-22.773c8.954,0,14.708,3.755,18.588,9.133
						l-9.131,7.074c-2.513-3.135-5.382-5.138-9.583-5.138c-6.125,0-10.451,5.201-10.451,11.584v0.121
						c0,6.568,4.326,11.709,10.451,11.709c4.561,0,7.262-2.137,9.892-5.324l9.135,6.495c-4.136,5.689-9.695,9.892-19.403,9.892
						C670.228,67.536,660.151,57.953,660.151,44.89"/>
				</g>
			</g>
			<g>
				<g>
					<polygon fill="#1D1D1B" points="712.674,57.713 715.821,57.713 721.022,52.516 715.821,47.321 712.674,47.321 717.866,52.516 
											"/>
				</g>
				<g>
					<path fill="#1D1D1B" d="M738.108,38.341h-2.517v4.164h-1.245V31.984h4.475c2.624,0,3.751,0.975,3.751,3.17
						c0,1.958-0.905,2.801-2.935,3.141l3.156,4.211h-1.54L738.108,38.341z M741.322,35.154c0-1.417-0.78-2.059-2.515-2.059h-3.217
						v4.122h3.038C740.569,37.217,741.322,36.681,741.322,35.154"/>
				</g>
				<g>
					<path fill="#1D1D1B" d="M752.473,37.706c0,1.495-0.237,2.575-0.847,3.514c-0.606,0.932-1.761,1.419-3.422,1.419
						c-1.677,0-2.785-0.416-3.398-1.301c-0.59-0.91-0.782-1.976-0.782-3.632v-5.722h1.245v5.586c0,2.642,0.979,3.959,2.935,3.959
						c1.064,0,1.837-0.355,2.311-1.082c0.474-0.724,0.713-1.674,0.713-2.863v-5.599h1.245V37.706z"/>
				</g>
				<g>
					<path fill="#1D1D1B" d="M762.624,31.984v10.524h-1.243l-5.501-8.483v8.483h-1.247V31.984h1.247l5.501,8.474v-8.474H762.624z
						 M756.148,30.116c0.103-0.163,0.192-0.387,0.711-0.758c0.268-0.19,0.536-0.297,0.785-0.297c0.313,0,0.65,0.15,1.037,0.434
						c0.402,0.279,0.7,0.414,0.89,0.414c0.241,0,0.55-0.25,0.713-0.443l0.116-0.152l0.697,0.505
						c-0.103,0.165-0.192,0.355-0.711,0.726c-0.25,0.192-0.516,0.282-0.769,0.282c-0.326,0-0.684-0.132-1.084-0.414
						c-0.4-0.282-0.682-0.429-0.843-0.429c-0.239,0-0.548,0.266-0.713,0.487l-0.118,0.165L756.148,30.116z"/>
				</g>
				<g>
					<path fill="#1D1D1B" d="M770.628,39.097h-4.151l-1.348,3.411h-1.332l4.254-10.524h0.99l4.269,10.524h-1.332L770.628,39.097z
						 M770.185,37.986l-1.648-4.102l-1.629,4.102H770.185z"/>
				</g>
				<g>
					<path fill="#1D1D1B" d="M727.548,53.576h-3.23v4.164h-1.247V47.214h4.477c2.62,0,3.751,0.977,3.751,3.176
						C731.299,52.505,730.052,53.576,727.548,53.576 M730.052,50.391c0-1.426-0.785-2.063-2.519-2.063h-3.214v4.122h3.036
						C729.298,52.449,730.052,51.913,730.052,50.391"/>
				</g>
				<g>
					<path fill="#1D1D1B" d="M736.335,53.576h-2.515v4.164h-1.247V47.214h4.477c2.622,0,3.749,0.977,3.749,3.176
						c0,1.951-0.901,2.801-2.935,3.138l3.158,4.211h-1.54L736.335,53.576z M739.552,50.391c0-1.426-0.782-2.063-2.517-2.063h-3.214
						v4.122h3.036C738.8,52.449,739.552,51.913,739.552,50.391"/>
				</g>
				<g>
					<path fill="#1D1D1B" d="M746.953,57.876c-1.442,0-2.642-0.534-3.619-1.6c-0.966-1.071-1.453-2.331-1.453-3.796
						c0-1.469,0.487-2.729,1.453-3.8c0.977-1.064,2.177-1.598,3.619-1.598c1.433,0,2.635,0.534,3.601,1.598
						c0.977,1.071,1.464,2.331,1.464,3.8c0,1.464-0.487,2.725-1.464,3.796C749.588,57.341,748.386,57.876,746.953,57.876
						 M746.953,48.212c-1.084,0-2.001,0.429-2.729,1.274c-0.727,0.843-1.1,1.851-1.1,2.993c0,1.138,0.373,2.15,1.1,2.989
						c0.729,0.849,1.645,1.279,2.729,1.279c1.08,0,1.998-0.429,2.718-1.279c0.731-0.838,1.104-1.851,1.104-2.989
						c0-1.142-0.373-2.15-1.104-2.993C748.951,48.642,748.033,48.212,746.953,48.212 M747.646,43.822h1.364l-1.54,2.211h-1.021
						L747.646,43.822z"/>
				</g>
				<g>
					<polygon fill="#1D1D1B" points="753.502,57.737 752.049,57.737 755.843,52.195 752.523,47.215 754.005,47.215 756.598,51.129 
						759.24,47.215 760.673,47.215 757.269,52.171 761.006,57.737 759.535,57.737 756.553,53.235 					"/>
				</g>
				<g>
					<rect x="762.202" y="47.215" fill="#1D1D1B" width="1.245" height="10.519"/>
				</g>
				<g>
					<polygon fill="#1D1D1B" points="776.61,47.216 776.61,57.737 775.365,57.737 775.365,48.268 771.735,57.737 770.55,57.737 
						766.915,48.268 766.915,57.737 765.668,57.737 765.668,47.216 767.85,47.216 771.14,55.812 774.433,47.216 					"/>
				</g>
				<g>
					<path fill="#1D1D1B" d="M784.614,54.332h-4.151l-1.346,3.407h-1.337l4.256-10.524h0.992l4.267,10.524h-1.332L784.614,54.332z
						 M784.169,53.223l-1.647-4.106l-1.625,4.106H784.169z"/>
				</g>
				<g>
					<path fill="#1D1D1B" d="M720.209,39.645l1.055,0.595c-0.758,1.634-2.092,2.454-4.041,2.454c-1.37,0-2.515-0.505-3.436-1.516
						c-0.908-1.03-1.368-2.322-1.368-3.896c0-1.547,0.46-2.839,1.368-3.865c0.921-1.028,2.065-1.547,3.436-1.547
						c1.949,0,3.331,0.923,4.041,2.468l-1.055,0.608c-0.577-1.308-1.574-1.963-2.986-1.963c-1.01,0-1.86,0.418-2.544,1.234
						c-0.668,0.823-1.01,1.828-1.01,3.065c0,1.247,0.342,2.273,1.01,3.091c0.671,0.805,1.52,1.205,2.544,1.205
						C718.664,41.579,719.657,40.937,720.209,39.645"/>
				</g>
				<g>
					<path fill="#1D1D1B" d="M727.511,42.692c-1.444,0-2.651-0.534-3.628-1.605c-0.968-1.068-1.457-2.334-1.457-3.802
						c0-1.473,0.49-2.738,1.457-3.807c0.977-1.073,2.184-1.609,3.628-1.609c1.439,0,2.644,0.536,3.612,1.609
						c0.986,1.068,1.471,2.334,1.471,3.807c0,1.469-0.485,2.734-1.471,3.802C730.155,42.158,728.95,42.692,727.511,42.692
						 M727.511,33c-1.086,0-2.012,0.434-2.736,1.279c-0.729,0.849-1.102,1.862-1.102,3.006c0,1.14,0.373,2.153,1.102,3
						c0.724,0.847,1.65,1.276,2.736,1.276c1.082,0,2.005-0.429,2.736-1.276c0.726-0.847,1.097-1.86,1.097-3
						c0-1.144-0.371-2.157-1.097-3.006C729.516,33.434,728.593,33,727.511,33"/>
				</g>
			</g>
		</g>
		<g>
			<g>
				<g>
					<g>
						<path fill="#1D1D1B" d="M859.73,42.854c-0.035,0.093,1.659,7.191,1.88,7.596c0.44,0.81,2.14-2.035,2.599-2.81
							c0.9-1.521,1.612-2.723,3.001-3.891c6.253-5.259,11.856,0.372,17.94-2.051c4.051-1.613,6.243-5.531,7.069-7.006
							c1.103-2.248,2.473-5.832,1.631-10.989c-0.261,0.122-0.502,0.236-0.754,0.354c0.267-0.126,0.522-0.245,0.754-0.354
							c-0.163-0.887-0.293-1.42-0.555-2.281c-1.201-3.718-2.427-4.611-2.438-4.616C882.865,9.382,862.167,22.046,859.73,42.854z"/>
					</g>
				</g>
				<g>
					<g>
						<path fill="#1D1D1B" d="M847.109,27.734c-0.004,0.078,1.983,7.109,3.065,6.796c0.7-0.202,1.126-2.043,1.287-2.736
							c0.315-1.36,0.564-2.435,1.332-3.646c3.455-5.451,9.017-2.547,13.02-5.823c2.666-2.181,3.383-5.654,3.652-6.962
							c0.295-1.956,0.472-4.982-1.392-8.664c-0.167,0.154-0.322,0.297-0.483,0.446c0.171-0.158,0.335-0.309,0.483-0.446
							c-0.334-0.629-0.559-0.999-0.962-1.586c-1.791-2.514-2.927-2.893-2.937-2.895C856.387-1.465,843.982,11.483,847.109,27.734z"
							/>
					</g>
				</g>
				<g>
					<g>
						<path fill="#1D1D1B" d="M827.872,4.944c-0.01,0.003-1.109,0.607-2.483,3.533c-0.305,0.68-0.467,1.103-0.693,1.814
							c0.179,0.114,0.376,0.238,0.582,0.369c-0.194-0.123-0.38-0.241-0.582-0.369c-1.229,4.143-0.48,7.228,0.19,9.187
							c0.523,1.297,1.913,4.741,5.068,6.487c4.739,2.623,9.924-1.411,14.506,3.557c1.018,1.104,1.476,2.164,2.056,3.506
							c0.295,0.684,1.08,2.5,1.839,2.577c1.173,0.119,1.902-7.496,1.883-7.576C850.412,10.701,835.204-0.313,827.872,4.944z"/>
					</g>
				</g>
				<g>
					<g>
						<g>
							<path fill="#1D1D1B" d="M855.61,22.227c-0.245,0.399-0.48,0.794-0.705,1.185h2.81c0.12-0.406,0.246-0.802,0.377-1.185H855.61
								z"/>
						</g>
					</g>
					<g>
						<g>
							<path fill="#1D1D1B" d="M861.564,14.683c-0.401,0.387-0.789,0.782-1.166,1.185h0.742c0.293-0.458,0.566-0.854,0.806-1.185
								H861.564z"/>
						</g>
					</g>
					<g>
						<g>
							<path fill="#1D1D1B" d="M859.249,17.162c-0.36,0.426-0.707,0.857-1.042,1.291h1.467c0.231-0.461,0.462-0.891,0.688-1.291
								H859.249z"/>
						</g>
					</g>
					<g>
						<g>
							<path fill="#1D1D1B" d="M857.248,19.748c-0.281,0.395-0.552,0.791-0.812,1.185h2.133c0.161-0.411,0.327-0.806,0.495-1.185
								H857.248z"/>
						</g>
					</g>
					<g>
						<g>
							<path fill="#1D1D1B" d="M851.853,29.664c-0.2,0.49-0.368,0.925-0.504,1.291h5.131c0.017-0.437,0.042-0.868,0.076-1.291
								H851.853z"/>
						</g>
					</g>
					<g>
						<g>
							<path fill="#1D1D1B" d="M854.187,24.706c-0.217,0.404-0.423,0.799-0.617,1.185h3.523c0.083-0.403,0.173-0.799,0.269-1.185
								H854.187z"/>
						</g>
					</g>
					<g>
						<g>
							<path fill="#1D1D1B" d="M852.94,27.185c-0.194,0.413-0.374,0.809-0.539,1.185h4.285c0.049-0.402,0.106-0.797,0.169-1.185
								H852.94z"/>
						</g>
					</g>
					<g>
						<g>
							<path fill="#1D1D1B" d="M851.324,62.21c-0.006,0.412-0.015,0.808-0.026,1.185h7.919c0.026-0.378,0.05-0.774,0.073-1.185
								H851.324z"/>
						</g>
					</g>
					<g>
						<g>
							<path fill="#1D1D1B" d="M851.127,54.666c0.029,0.437,0.055,0.868,0.078,1.291h8.218c-0.006-0.424-0.015-0.855-0.027-1.291
								H851.127z"/>
						</g>
					</g>
					<g>
						<g>
							<path fill="#1D1D1B" d="M850.926,52.187c0.038,0.399,0.073,0.794,0.105,1.185h8.318c-0.017-0.391-0.038-0.787-0.062-1.185
								H850.926z"/>
						</g>
					</g>
					<g>
						<g>
							<path fill="#1D1D1B" d="M851.102,67.168c-0.06,0.762-0.108,1.179-0.108,1.179h7.732c0,0,0.062-0.42,0.15-1.179H851.102z"/>
						</g>
					</g>
					<g>
						<g>
							<path fill="#1D1D1B" d="M859.12,64.689h-7.868c-0.019,0.429-0.039,0.825-0.061,1.185h7.823
								C859.049,65.513,859.085,65.116,859.12,64.689z"/>
						</g>
					</g>
					<g>
						<g>
							<path fill="#1D1D1B" d="M851.303,58.436h8.119c0.006-0.388,0.009-0.783,0.009-1.185h-8.167
								C851.28,57.654,851.293,58.05,851.303,58.436z"/>
						</g>
					</g>
					<g>
						<g>
							<path fill="#1D1D1B" d="M851.327,59.731c0.005,0.406,0.007,0.801,0.007,1.185h8.019c0.016-0.384,0.03-0.78,0.041-1.185
								H851.327z"/>
						</g>
					</g>
					<g>
						<g>
							<path fill="#1D1D1B" d="M859.199,50.893c-0.03-0.393-0.063-0.788-0.1-1.185h-8.319v-1.294h8.186
								c-0.044-0.394-0.092-0.789-0.144-1.185h-8.043v-1.294h7.86c-0.06-0.395-0.124-0.79-0.192-1.185h-7.668v-1.294h7.428
								c-0.085-0.431-0.176-0.862-0.272-1.291h-7.018v-1.294h6.71c-0.022-0.088-0.044-0.177-0.067-0.265
								c-0.08-0.309-0.154-0.615-0.224-0.92h-6.419v-1.294h6.144c-0.077-0.399-0.144-0.794-0.206-1.185h-5.939v-1.294h5.761
								c-0.047-0.399-0.087-0.795-0.118-1.185h-5.643v-1.294h5.565c-0.016-0.4-0.024-0.795-0.026-1.185h-5.539v-0.066
								c-0.015,0.048-0.023,0.073-0.023,0.073c-6.195-9.495-14.904-14.5-14.904-14.5c9.962,8.722,13.595,22.26,14.801,33.137
								H859.199z"/>
						</g>
					</g>
				</g>
				<g>
					<g>
						<g>
							<path fill="#1D1D1B" d="M879.168,36.475c-0.342,0.055-0.678,0.112-1.01,0.171v0.976c0.349-0.172,0.687-0.328,1.01-0.468
								V36.475z"/>
						</g>
					</g>
					<g>
						<g>
							<path fill="#1D1D1B" d="M873.191,40.489h0.161c0.573-0.501,1.15-0.952,1.721-1.358v-2.175
								c-0.345,0.079-0.681,0.158-1.01,0.239v2.319h-0.873v-2.099c-0.446,0.116-0.876,0.233-1.287,0.349v1.626h-0.873v-1.372
								c-0.353,0.106-0.689,0.21-1.01,0.312v1.259h-0.873v-0.972c-0.451,0.152-0.863,0.297-1.23,0.431v0.728h-0.873v-0.398
								c-0.868,0.339-1.336,0.556-1.336,0.556c0.028-0.719,0.198-1.444,0.464-2.161h-0.07v-3.226h0.873v1.538
								c2.167-3.746,6.342-6.858,6.342-6.858c-1.642,0.714-3.122,1.528-4.459,2.421v1.726h-0.873v-1.12
								c-0.347,0.252-0.683,0.51-1.01,0.773v0.544h-0.651c-3.084,2.662-5.199,5.789-6.635,8.975
								c2.367,10.588,0.707,24.197,0.423,25.8h1.521v-2.421h0.873v2.421h3.604c-1.459-8.903-0.452-15.416,1.639-20.17h-0.705V44.95
								h0.873v2.852c0.38-0.824,0.792-1.593,1.23-2.312v-0.727h0.461c0.454-0.683,0.93-1.315,1.422-1.903v-2.496h0.873v1.516
								c0.423-0.447,0.853-0.863,1.287-1.25V40.489z M863.233,36.937h0.873v3.226h-0.873V36.937z M863.233,41.137h0.873v3.226
								h-0.873V41.137z M861.35,41.336h0.873v3.226h-0.873V41.336z M861.35,45.536h0.873v3.226h-0.873V45.536z M861.35,52.963
								v-3.226h0.873v3.226H861.35z M862.508,64.951h-0.873v-3.226h0.873V64.951z M862.508,60.751h-0.873v-3.226h0.873V60.751z
								 M863.233,45.338h0.873v3.226h-0.873V45.338z M864.39,64.753h-0.873v-3.226h0.873V64.753z M864.39,60.553h-0.873v-3.226
								h0.873V60.553z M864.39,56.352h-0.873v-3.226h0.873V56.352z M866.036,52.575h-0.873v-3.226h0.873V52.575z M866.036,48.375
								h-0.873v-3.226h0.873V48.375z M866.036,44.174h-0.873v-3.226h0.873V44.174z M867.918,43.976h-0.873v-3.226h0.873V43.976z
								 M870.021,43.789h-0.873v-3.226h0.873V43.789z"/>
						</g>
					</g>
					<g>
						<g>
							<path fill="#1D1D1B" d="M880.041,36.339v0.46c1.606-0.613,2.677-0.8,2.677-0.8C881.796,36.096,880.904,36.211,880.041,36.339
								z"/>
						</g>
					</g>
					<g>
						<g>
							<path fill="#1D1D1B" d="M875.985,37.072v1.778c0.442-0.283,0.877-0.54,1.3-0.773v-1.269
								C876.841,36.893,876.408,36.982,875.985,37.072z"/>
						</g>
					</g>
				</g>
				<g>
					<g>
						<g>
							<path fill="#1D1D1B" d="M851.718,14.053c0.681,1.985,2.083,3.517,3.813,4.407c0.819-1.765,0.986-3.835,0.305-5.82
								c-0.681-1.985-2.083-3.517-3.813-4.407C851.204,9.998,851.037,12.068,851.718,14.053z"/>
						</g>
					</g>
					<g>
						<g>
							<path fill="#1D1D1B" d="M868.254,24.565c-0.415,1.787-0.086,3.572,0.784,5.033c1.424-0.928,2.507-2.385,2.922-4.172
								c0.415-1.787,0.086-3.572-0.784-5.033C869.752,21.321,868.669,22.778,868.254,24.565z"/>
						</g>
					</g>
					<g>
						<g>
							<path fill="#1D1D1B" d="M862.963,29.405c-0.224,1.459,0.162,2.873,0.971,3.996c1.108-0.828,1.901-2.062,2.125-3.521
								c0.224-1.459-0.162-2.873-0.971-3.996C863.98,26.713,863.187,27.946,862.963,29.405z"/>
						</g>
					</g>
					<g>
						<g>
							<path fill="#1D1D1B" d="M833.045,27.74c0.916,0.887,2.078,1.349,3.229,1.387c-0.074-1.149-0.573-2.296-1.489-3.183
								c-0.916-0.887-2.078-1.349-3.229-1.387C831.63,25.706,832.129,26.853,833.045,27.74z"/>
						</g>
					</g>
					<g>
						<g>
							<path fill="#1D1D1B" d="M838.578,29.626c0.464,1.187,1.438,2.048,2.646,2.491c0.587-1.145,0.718-2.438,0.253-3.625
								c-0.464-1.187-1.438-2.048-2.646-2.491C838.245,27.146,838.114,28.439,838.578,29.626z"/>
						</g>
					</g>
					<g>
						<g>
							<path fill="#1D1D1B" d="M827.258,28.64c1.322,0.543,2.725,0.541,3.939,0.1c-0.554-1.168-1.549-2.156-2.871-2.699
								c-1.322-0.543-2.725-0.541-3.939-0.1C824.94,27.108,825.936,28.096,827.258,28.64z"/>
						</g>
					</g>
					<g>
						<g>
							<path fill="#1D1D1B" d="M830.398,33.068c1.285-0.083,2.416-0.693,3.219-1.616c-0.915-0.812-2.115-1.271-3.4-1.188
								s-2.416,0.693-3.219,1.616C827.913,32.692,829.113,33.151,830.398,33.068z"/>
						</g>
					</g>
					<g>
						<g>
							<path fill="#1D1D1B" d="M883.95,37.541c-1.552-0.193-3.044,0.298-4.216,1.253c0.903,1.213,2.228,2.055,3.78,2.249
								c1.552,0.193,3.044-0.298,4.216-1.253C886.827,38.576,885.502,37.734,883.95,37.541z"/>
						</g>
					</g>
					<g>
						<g>
							<path fill="#1D1D1B" d="M877.082,31.454c-0.802,1.079-1.066,2.403-0.849,3.684c1.289-0.162,2.481-0.796,3.283-1.875
								c0.802-1.079,1.066-2.403,0.849-3.684C879.075,29.741,877.884,30.375,877.082,31.454z"/>
						</g>
					</g>
					<g>
						<g>
							<path fill="#1D1D1B" d="M882.926,30.594c-0.802,1.079-1.066,2.403-0.849,3.684c1.289-0.162,2.481-0.796,3.283-1.875
								c0.802-1.079,1.066-2.403,0.849-3.684C884.919,28.881,883.728,29.515,882.926,30.594z"/>
						</g>
					</g>
					<g>
						<g>
							<path fill="#1D1D1B" d="M888.179,32.428c-1.091,0.31-1.947,1.06-2.461,2.029c0.946,0.554,2.069,0.742,3.16,0.432
								c1.091-0.31,1.947-1.06,2.461-2.029C890.393,32.306,889.27,32.118,888.179,32.428z"/>
						</g>
					</g>
					<g>
						<g>
							<path fill="#1D1D1B" d="M876.898,26.11c-1.091,0.31-1.947,1.06-2.461,2.029c0.946,0.554,2.069,0.742,3.16,0.432
								c1.091-0.31,1.947-1.06,2.461-2.029C879.112,25.987,877.989,25.8,876.898,26.11z"/>
						</g>
					</g>
					<g>
						<g>
							<path fill="#1D1D1B" d="M875.537,19.932c-0.769,1.158-0.97,2.539-0.676,3.851c1.323-0.237,2.518-0.957,3.288-2.115
								c0.769-1.158,0.97-2.539,0.676-3.851C877.502,18.054,876.307,18.773,875.537,19.932z"/>
						</g>
					</g>
					<g>
						<g>
							<path fill="#1D1D1B" d="M861.495,21.573c-1.773,1.123-2.937,2.843-3.402,4.732c1.906,0.387,3.959,0.068,5.732-1.055
								c1.773-1.123,2.937-2.843,3.402-4.732C865.32,20.131,863.268,20.45,861.495,21.573z"/>
						</g>
					</g>
					<g>
						<g>
							<path fill="#1D1D1B" d="M865.801,13.957c-2,0.726-3.528,2.175-4.399,3.944c1.803,0.799,3.904,0.931,5.905,0.205
								c2-0.726,3.528-2.175,4.399-3.944C869.902,13.363,867.801,13.231,865.801,13.957z"/>
						</g>
					</g>
					<g>
						<g>
							<path fill="#1D1D1B" d="M866.175,7.558c-1.734,1.149-2.853,2.876-3.275,4.756c1.896,0.345,3.923-0.012,5.657-1.16
								c1.734-1.149,2.853-2.876,3.275-4.756C869.936,6.053,867.909,6.409,866.175,7.558z"/>
						</g>
					</g>
					<g>
						<g>
							<path fill="#1D1D1B" d="M858.2,8.1c-0.129,1.92,0.513,3.712,1.659,5.078c1.318-1.201,2.193-2.891,2.322-4.811
								c0.129-1.92-0.513-3.712-1.659-5.078C859.204,4.49,858.328,6.181,858.2,8.1z"/>
						</g>
					</g>
					<g>
						<g>
							<path fill="#1D1D1B" d="M878.154,41.442c-2.076-0.309-4.081,0.231-5.668,1.357c1.19,1.539,2.951,2.64,5.027,2.949
								s4.081-0.231,5.668-1.357C881.991,42.852,880.23,41.751,878.154,41.442z"/>
						</g>
					</g>
					<g>
						<g>
							<path fill="#1D1D1B" d="M840.701,14.542c-0.374,2.065,0.104,4.087,1.179,5.707c1.575-1.141,2.731-2.867,3.104-4.932
								c0.374-2.065-0.104-4.087-1.179-5.707C842.23,10.751,841.075,12.477,840.701,14.542z"/>
						</g>
					</g>
					<g>
						<g>
							<path fill="#1D1D1B" d="M834.705,12.077c0.073,1.842,0.867,3.485,2.099,4.67c1.134-1.279,1.796-2.979,1.723-4.821
								s-0.867-3.485-2.099-4.67C835.294,8.535,834.632,10.235,834.705,12.077z"/>
						</g>
					</g>
					<g>
						<g>
							<path fill="#1D1D1B" d="M834.632,23.666c1.358-0.033,2.576-0.6,3.463-1.494c-0.929-0.849-2.174-1.356-3.532-1.322
								c-1.358,0.033-2.576,0.6-3.463,1.494C832.029,23.193,833.274,23.7,834.632,23.666z"/>
						</g>
					</g>
					<g>
						<g>
							<path fill="#1D1D1B" d="M829.479,19.984c1.662-0.041,3.154-0.735,4.239-1.829c-1.138-1.04-2.662-1.66-4.324-1.619
								c-1.662,0.041-3.154,0.735-4.239,1.829C826.293,19.405,827.817,20.025,829.479,19.984z"/>
						</g>
					</g>
					<g>
						<g>
							<path fill="#1D1D1B" d="M828.575,14.102c1.44,0.831,3.075,1.015,4.572,0.646c-0.43-1.48-1.408-2.803-2.848-3.634
								c-1.44-0.831-3.075-1.015-4.572-0.646C826.156,11.949,827.135,13.272,828.575,14.102z"/>
						</g>
					</g>
				</g>
			</g>
			<g>
				<g>
					<g>
						<path fill="#1D1D1B" d="M874.642,49.346h-0.755c-1.888,0-3.281,1.322-3.281,3.092c0,2.148,1.641,3.092,2.856,3.092h1.18v1.039
							h-1.18c-2.301,0-4.013-1.77-4.013-4.131c0-2.006,1.641-4.131,4.32-4.131h0.873V49.346z"/>
					</g>
				</g>
				<g>
					<g>
						<path fill="#1D1D1B" d="M878.564,50.786c1.57,0,2.939,1.204,2.939,2.951c0,1.747-1.369,2.951-2.939,2.951
							s-2.939-1.204-2.939-2.951C875.625,51.99,876.994,50.786,878.564,50.786z M878.217,55.695c1.074,0,1.853-0.803,1.853-1.959
							c0-1.157-0.779-1.959-1.853-1.959c-1.074,0-1.853,0.803-1.853,1.959C876.364,54.893,877.143,55.695,878.217,55.695z"/>
					</g>
				</g>
				<g>
					<g>
						<path fill="#1D1D1B" d="M882.029,56.569v-3.305c0-1.487,1.039-2.478,2.419-2.478s2.42,0.991,2.42,2.478v3.305h-1.039v-3.305
							c0-0.873-0.637-1.487-1.381-1.487c-0.744,0-1.381,0.614-1.381,1.487v3.305H882.029z"/>
					</g>
				</g>
				<g>
					<g>
						<path fill="#1D1D1B" d="M887.93,56.569v-3.305c0-1.487,1.039-2.478,2.419-2.478c1.381,0,2.42,0.991,2.42,2.478v3.305h-1.039
							v-3.305c0-0.873-0.637-1.487-1.381-1.487c-0.743,0-1.381,0.614-1.381,1.487v3.305H887.93z"/>
					</g>
				</g>
				<g>
					<g>
						<path fill="#1D1D1B" d="M895.853,54.704l-0.425-0.826l2.797-1.558c-0.354-0.354-0.649-0.543-1.286-0.543
							c-1.074,0-1.853,0.803-1.853,1.959c0,1.156,0.779,1.959,1.853,1.959c1.227,0,1.688-0.732,1.9-1.77l1.05,0.13
							c-0.118,1.499-1.322,2.632-2.951,2.632c-1.57,0-2.939-1.204-2.939-2.951c0-1.747,1.369-2.951,2.939-2.951
							c1.322,0,2.207,0.696,2.738,1.794L895.853,54.704z"/>
					</g>
				</g>
				<g>
					<g>
						<path fill="#1D1D1B" d="M904.551,51.895h-0.803c-0.98,0-1.947,0.637-1.947,1.841c0,1.204,0.968,1.841,1.947,1.841h0.803v0.991
							h-0.991c-1.322,0-2.844-1.015-2.844-2.833c0-1.818,1.523-2.833,2.844-2.833h0.991V51.895z"/>
					</g>
				</g>
				<g>
					<g>
						<path fill="#1D1D1B" d="M908.563,51.895h-2.03v2.974c0,0.531,0.248,0.708,0.779,0.708h1.251v0.991h-1.393
							c-1.062,0-1.676-0.708-1.676-1.829v-5.252h1.039v1.416h2.03V51.895z"/>
					</g>
				</g>
				<g>
					<g>
						<path fill="#1D1D1B" d="M910.369,49.015c0.401,0,0.626,0.307,0.626,0.626s-0.224,0.626-0.626,0.626s-0.626-0.307-0.626-0.626
							S909.967,49.015,910.369,49.015z M909.849,56.569v-5.665h1.039v5.665H909.849z"/>
					</g>
				</g>
				<g>
					<g>
						<path fill="#1D1D1B" d="M912.54,56.569v-3.305c0-1.487,1.039-2.478,2.419-2.478s2.42,0.991,2.42,2.478v3.305h-1.039v-3.305
							c0-0.873-0.637-1.487-1.381-1.487c-0.744,0-1.381,0.614-1.381,1.487v3.305H912.54z"/>
					</g>
				</g>
				<g>
					<g>
						<path fill="#1D1D1B" d="M922.548,56.309c-0.389,0.212-0.944,0.378-1.334,0.378c-1.652,0-2.927-1.227-2.927-2.88
							c0-1.7,1.157-3.021,2.927-3.021c1.723,0,2.785,1.393,2.785,2.809v2.526c0,2.124-1.298,3.139-2.963,3.139
							c-0.637,0-1.263-0.13-1.865-0.33l0.248-0.944c0.519,0.142,1.039,0.283,1.57,0.283c0.932,0,1.971-0.413,1.971-1.794v-2.644
							c0-1.275-0.826-2.054-1.794-2.054c-1.239,0-1.841,0.98-1.841,2.089c0,1.109,0.826,1.829,1.9,1.829
							c0.472,0,0.921-0.224,1.322-0.46V56.309z"/>
					</g>
				</g>
			</g>
			<g>
				<g>
					<g>
						<path fill="#1D1D1B" d="M869.626,68.363v-7.317c0-0.732,0.425-1.015,0.968-1.015c0.637,0,0.862,0.378,1.263,1.216l2.656,5.488
							h0.024v-6.633h1.109v7.542c0,0.449-0.271,0.791-0.85,0.791c-0.531,0-0.791-0.165-1.098-0.803l-2.939-6.043h-0.024v6.775
							H869.626z"/>
					</g>
				</g>
				<g>
					<g>
						<path fill="#1D1D1B" d="M881.297,68.363v-3.187c0-1.062-0.897-1.605-1.841-1.605c-1.145,0-1.865,0.909-1.865,1.983
							c0,1.051,0.767,1.936,1.853,1.936c0.59,0,1.074-0.331,1.428-0.779v1.228c-0.413,0.307-0.814,0.543-1.534,0.543
							c-1.629,0-2.785-1.346-2.785-3.01c0-1.617,1.109-2.892,2.927-2.892c1.747,0,2.856,1.062,2.856,2.691v3.092H881.297z"/>
					</g>
				</g>
				<g>
					<g>
						<path fill="#1D1D1B" d="M886.919,63.69h-2.03v2.974c0,0.531,0.248,0.708,0.779,0.708h1.251v0.991h-1.393
							c-1.062,0-1.676-0.708-1.676-1.829v-5.252h1.039v1.416h2.03V63.69z"/>
					</g>
				</g>
				<g>
					<g>
						<path fill="#1D1D1B" d="M892.454,62.698v3.305c0,1.487-1.039,2.479-2.42,2.479s-2.419-0.991-2.419-2.479v-3.305h1.039v3.305
							c0,0.873,0.637,1.487,1.381,1.487c0.744,0,1.381-0.614,1.381-1.487v-3.305H892.454z"/>
					</g>
				</g>
				<g>
					<g>
						<path fill="#1D1D1B" d="M893.504,62.698h0.991v0.649h0.023c0.354-0.555,0.838-0.767,1.534-0.767h0.236v0.991h-0.153
							c-1.003,0-1.593,0.614-1.593,2.148v2.644h-1.039V62.698z"/>
					</g>
				</g>
				<g>
					<g>
						<path fill="#1D1D1B" d="M898.473,66.499l-0.425-0.826l2.797-1.558c-0.354-0.354-0.649-0.543-1.286-0.543
							c-1.074,0-1.853,0.803-1.853,1.959s0.779,1.959,1.853,1.959c1.228,0,1.688-0.732,1.9-1.77l1.051,0.13
							c-0.118,1.499-1.322,2.632-2.951,2.632c-1.57,0-2.939-1.204-2.939-2.951c0-1.747,1.369-2.951,2.939-2.951
							c1.322,0,2.207,0.696,2.738,1.794L898.473,66.499z"/>
					</g>
				</g>
			</g>
		</g>
	</g>
</g>
</svg>
