<?xml version="1.0" encoding="utf-8"?>
<!-- Generator: Adobe Illustrator 17.0.0, SVG Export Plug-In . SVG Version: 6.00 Build 0)  -->
<!DOCTYPE svg PUBLIC "-//W3C//DTD SVG 1.1//EN" "http://www.w3.org/Graphics/SVG/1.1/DTD/svg11.dtd">
<svg version="1.1" id="Capa_1" xmlns="http://www.w3.org/2000/svg" xmlns:xlink="http://www.w3.org/1999/xlink" x="0px" y="0px"
	 width="404px" height="155.359px" viewBox="0 0 404 155.359" enable-background="new 0 0 404 155.359" xml:space="preserve">
<g>
	<g>
		<path fill="#FFFFFF" d="M79.22,74.385c-5.091,6.522-13.006,10.732-21.922,10.732c-15.363,0-27.818-12.454-27.818-27.818
			c0-15.364,12.454-27.818,27.818-27.818c8.916,0,16.831,4.21,21.922,10.732l21.271-20.541C89.987,7.624,74.538,0,57.298,0
			C25.654,0,0,25.654,0,57.299c0,31.645,25.654,57.298,57.298,57.298c17.239,0,32.688-7.624,43.193-19.672L79.22,74.385z"/>
	</g>
	<g>
		<path fill="#FFFFFF" d="M155.946,19.693c1.149,0.295,1.882,1.344,1.766,2.524c-0.572,5.811-3.213,22.885-14.812,31
			s-29.233,5.227-34.888,3.773c-1.149-0.295-1.882-1.344-1.766-2.524c0.572-5.811,3.902-23.367,15.501-31.482
			S150.291,18.239,155.946,19.693z"/>
	</g>
	<g>
		<circle fill="#FFFFFF" cx="130.058" cy="79.613" r="13.11"/>
	</g>
	<g>
		<g>
			<path fill="#FFFFFF" d="M211.934,46.07c-3.146,2.083-6.844,3.124-11.095,3.124c-4.122,0-7.701-0.889-10.738-2.668
				c-3.037-1.778-5.38-4.338-7.028-7.679c-1.649-3.34-2.473-7.266-2.473-11.778c0-4.512,0.824-8.438,2.473-11.779
				c1.648-3.34,3.991-5.899,7.028-7.679c3.036-1.779,6.594-2.668,10.672-2.668c4.295,0,7.907,0.89,10.835,2.668
				c2.928,1.78,5.043,4.404,6.345,7.874l-6.573,2.928c-0.868-2.559-2.126-4.435-3.774-5.629c-1.649-1.193-3.797-1.79-6.443-1.79
				c-4.035,0-7.256,1.421-9.664,4.263c-2.408,2.842-3.612,6.779-3.612,11.811c0,5.076,1.149,9.024,3.449,11.843
				c2.299,2.821,5.488,4.23,9.566,4.23c2.776,0,5.109-0.693,6.996-2.082c1.887-1.388,3.243-3.427,4.067-6.117l6.638,2.212
				C217.302,41.016,215.079,43.987,211.934,46.07z"/>
		</g>
		<g>
			<path fill="#FFFFFF" d="M252.768,19.845c2.863,2.994,4.295,7.137,4.295,12.429c0,5.294-1.432,9.436-4.295,12.429
				c-2.864,2.994-6.833,4.49-11.909,4.49c-5.076,0-9.046-1.497-11.909-4.49c-2.863-2.994-4.295-7.136-4.295-12.429
				c0-5.292,1.432-9.436,4.295-12.429c2.863-2.994,6.833-4.49,11.909-4.49C245.935,15.354,249.904,16.851,252.768,19.845z
				 M234.059,23.782c-1.584,1.974-2.375,4.805-2.375,8.492c0,3.688,0.791,6.519,2.375,8.493c1.583,1.974,3.85,2.961,6.8,2.961
				c2.95,0,5.227-0.997,6.833-2.994c1.604-1.995,2.408-4.816,2.408-8.46c0-3.644-0.803-6.464-2.408-8.46
				c-1.606-1.995-3.883-2.994-6.833-2.994C237.908,20.821,235.642,21.808,234.059,23.782z"/>
		</g>
		<g>
			<path fill="#FFFFFF" d="M286.346,16.005l-1.107,6.377c-0.998-0.563-2.365-0.846-4.1-0.846c-1.389,0-2.701,0.369-3.937,1.106
				c-1.236,0.738-2.257,1.844-3.059,3.319c-0.803,1.475-1.204,3.254-1.204,5.336v17.245h-6.963V16.005h5.922l0.586,5.857
				c1.822-4.338,5.249-6.508,10.282-6.508C284.285,15.354,285.477,15.572,286.346,16.005z"/>
		</g>
		<g>
			<path fill="#FFFFFF" d="M322.397,16.005v32.538h-6.182l-0.26-5.271c-2.213,3.948-6.075,5.922-11.584,5.922
				c-3.514,0-6.345-0.965-8.492-2.896c-2.147-1.929-3.221-4.891-3.221-8.883v-21.41h6.963v19.588c0,2.863,0.563,4.892,1.692,6.085
				c1.128,1.194,2.798,1.79,5.011,1.79c2.646,0,4.826-0.835,6.54-2.505c1.713-1.669,2.57-4.132,2.57-7.386v-17.57H322.397z"/>
		</g>
		<g>
			<path fill="#FFFFFF" d="M359.521,18.478c2.278,2.082,3.417,5.076,3.417,8.98v21.084h-6.963V29.671c0-5.727-2.321-8.59-6.963-8.59
				c-2.43,0-4.513,0.836-6.247,2.505c-1.736,1.671-2.603,4.241-2.603,7.711v17.245h-6.963V16.005h6.182l0.325,5.401
				c1.084-2.038,2.58-3.557,4.49-4.555c1.908-0.997,4.077-1.497,6.507-1.497C354.304,15.354,357.244,16.395,359.521,18.478z
				 M352.786,11.059c-1.259,0-2.311-0.228-3.156-0.683c-0.846-0.456-1.725-1.095-2.635-1.92c-0.738-0.607-1.301-1.03-1.692-1.269
				c-0.39-0.238-0.846-0.358-1.366-0.358c-0.825,0-1.464,0.358-1.92,1.074s-0.792,1.79-1.009,3.221h-4.751
				c0.391-6.16,2.971-9.241,7.744-9.241c1.214,0,2.223,0.218,3.026,0.651c0.802,0.434,1.702,1.085,2.701,1.952
				c0.737,0.608,1.301,1.031,1.692,1.269c0.391,0.239,0.824,0.358,1.301,0.358c0.867,0,1.529-0.347,1.985-1.041
				c0.456-0.693,0.791-1.757,1.009-3.189h4.751C360.074,8.001,357.514,11.059,352.786,11.059z"/>
		</g>
		<g>
			<path fill="#FFFFFF" d="M404,43.727l-0.456,4.686c-1.172,0.521-2.516,0.781-4.035,0.781c-1.866,0-3.351-0.369-4.458-1.107
				c-1.106-0.737-1.833-1.973-2.18-3.709c-0.999,1.519-2.473,2.7-4.425,3.547c-1.952,0.846-4.143,1.269-6.573,1.269
				c-3.167,0-5.726-0.737-7.679-2.213c-1.952-1.474-2.928-3.579-2.928-6.312c0-2.559,1.062-4.718,3.188-6.475
				c2.125-1.757,5.293-3.004,9.501-3.742l8.264-1.432v-1.757c0-1.995-0.586-3.568-1.757-4.718c-1.171-1.149-2.798-1.725-4.881-1.725
				c-4.295,0-7.093,1.952-8.395,5.857l-5.401-2.863c0.781-2.603,2.375-4.663,4.783-6.182c2.408-1.518,5.369-2.278,8.883-2.278
				c4.207,0,7.548,0.976,10.021,2.929s3.709,4.816,3.709,8.59V41.58c0,0.824,0.184,1.431,0.553,1.822
				c0.368,0.391,0.986,0.586,1.855,0.586C402.546,43.987,403.349,43.901,404,43.727z M389.553,42.23
				c1.778-1.128,2.668-2.624,2.668-4.49v-3.905l-7.093,1.432c-2.256,0.434-3.927,1.041-5.011,1.822
				c-1.085,0.781-1.627,1.822-1.627,3.123c0,1.215,0.423,2.138,1.269,2.766c0.846,0.629,2.05,0.944,3.612,0.944
				C385.714,43.923,387.774,43.359,389.553,42.23z"/>
		</g>
		<g>
			<path fill="#FFFFFF" d="M204.743,108.194h-8.135l-15.944-42.95h7.419l10.022,28.568l2.603,8.525l2.603-8.46l10.022-28.634h7.354
				L204.743,108.194z"/>
		</g>
		<g>
			<path fill="#FFFFFF" d="M227.584,69.051c-0.824-0.758-1.236-1.832-1.236-3.221c0-1.388,0.412-2.451,1.236-3.189
				c0.824-0.737,1.974-1.106,3.449-1.106c1.474,0,2.613,0.369,3.416,1.106c0.802,0.738,1.204,1.801,1.204,3.189
				c0,1.389-0.402,2.462-1.204,3.221c-0.803,0.76-1.942,1.139-3.416,1.139C229.558,70.19,228.408,69.811,227.584,69.051z
				 M234.482,108.194h-6.963V75.656h6.963V108.194z"/>
		</g>
		<g>
			<path fill="#FFFFFF" d="M274.047,75.656l-12.95,32.538h-7.614l-13.015-32.538h7.679l9.176,26.877l9.436-26.877H274.047z"/>
		</g>
		<g>
			<path fill="#FFFFFF" d="M309.644,103.378l-0.456,4.685c-1.172,0.521-2.516,0.781-4.035,0.781c-1.866,0-3.351-0.369-4.458-1.107
				c-1.106-0.737-1.833-1.973-2.18-3.709c-0.999,1.519-2.473,2.7-4.425,3.547c-1.952,0.846-4.143,1.269-6.573,1.269
				c-3.167,0-5.726-0.737-7.679-2.213c-1.952-1.474-2.928-3.579-2.928-6.312c0-2.559,1.062-4.718,3.188-6.475
				c2.125-1.757,5.293-3.004,9.501-3.741l8.264-1.432v-1.757c0-1.995-0.586-3.568-1.757-4.718c-1.171-1.15-2.798-1.725-4.881-1.725
				c-4.295,0-7.093,1.952-8.395,5.857l-5.401-2.864c0.781-2.603,2.375-4.663,4.783-6.182c2.408-1.518,5.369-2.278,8.883-2.278
				c4.207,0,7.548,0.976,10.021,2.928c2.473,1.952,3.709,4.816,3.709,8.59v14.707c0,0.824,0.184,1.431,0.553,1.822
				c0.368,0.39,0.986,0.586,1.854,0.586C308.19,103.639,308.993,103.552,309.644,103.378z M295.197,101.881
				c1.778-1.128,2.668-2.624,2.668-4.49v-3.904l-7.093,1.432c-2.256,0.434-3.927,1.041-5.011,1.822
				c-1.085,0.781-1.627,1.822-1.627,3.123c0,1.215,0.423,2.137,1.269,2.766c0.846,0.629,2.05,0.944,3.612,0.944
				C291.358,103.574,293.418,103.01,295.197,101.881z"/>
		</g>
	</g>
	<g>
		<path fill="#FFFFFF" d="M40.528,150.938h-2.085l-5.811-9.306l-1.473-2.737h-0.021l0.085,2.232v9.811h-1.6v-13.895h2.084
			l5.79,9.263l1.495,2.779h0.02l-0.084-2.232v-9.81h1.6V150.938z"/>
		<path fill="#FFFFFF" d="M54.106,149.611l-0.105,1.326c-0.393,0.14-0.814,0.21-1.263,0.21c-0.548,0-0.979-0.119-1.295-0.358
			s-0.516-0.639-0.6-1.2c-0.323,0.491-0.796,0.874-1.421,1.147c-0.625,0.274-1.281,0.411-1.969,0.411
			c-1.038,0-1.894-0.242-2.568-0.726c-0.674-0.484-1.01-1.183-1.01-2.095c0-0.801,0.35-1.491,1.052-2.074
			c0.702-0.582,1.719-0.987,3.053-1.211l2.8-0.463v-0.59c0-0.702-0.217-1.263-0.653-1.684c-0.435-0.421-1.039-0.631-1.81-0.631
			c-0.702,0-1.309,0.168-1.822,0.505c-0.512,0.337-0.909,0.836-1.189,1.495l-1.242-0.905c0.281-0.786,0.803-1.411,1.568-1.874
			c0.765-0.463,1.659-0.695,2.685-0.695c1.249,0,2.252,0.303,3.01,0.905c0.758,0.604,1.137,1.495,1.137,2.674v5.179
			c0,0.253,0.063,0.442,0.189,0.568c0.126,0.127,0.33,0.19,0.61,0.19S53.826,149.681,54.106,149.611z M49.822,149.043
			c0.639-0.422,0.958-0.969,0.958-1.643v-1.453l-2.358,0.442c-0.94,0.169-1.643,0.411-2.105,0.727
			c-0.463,0.315-0.695,0.719-0.695,1.211c0,0.435,0.168,0.768,0.505,1c0.337,0.232,0.807,0.347,1.411,0.347
			C48.422,149.675,49.184,149.464,49.822,149.043z"/>
		<path fill="#FFFFFF" d="M62.57,150.2c-0.702,0.631-1.607,0.948-2.716,0.948c-0.856,0-1.555-0.232-2.095-0.695
			c-0.54-0.463-0.817-1.172-0.831-2.126v-6.464h-2.106v-1.453h2.106v-2.526l1.684-0.463v2.989h3.895v1.453h-3.895v6.168
			c0,0.506,0.144,0.888,0.432,1.147c0.287,0.26,0.67,0.39,1.147,0.39c0.674,0,1.27-0.26,1.79-0.779L62.57,150.2z"/>
		<path fill="#FFFFFF" d="M74.065,140.41v10.527h-1.473l-0.106-1.6c-0.702,1.207-1.958,1.811-3.769,1.811
			c-1.137,0-2.067-0.316-2.79-0.948s-1.084-1.599-1.084-2.905v-6.884h1.684v6.442c0,1.025,0.21,1.752,0.631,2.179
			c0.421,0.429,1.039,0.642,1.853,0.642c0.968,0,1.772-0.295,2.41-0.884c0.639-0.59,0.959-1.474,0.959-2.653v-5.727H74.065z"/>
		<path fill="#FFFFFF" d="M84.108,140.41l-0.337,1.643c-0.336-0.183-0.779-0.274-1.326-0.274c-0.45,0-0.888,0.13-1.316,0.39
			c-0.428,0.26-0.779,0.653-1.052,1.179c-0.274,0.526-0.41,1.161-0.41,1.905v5.684h-1.685V140.41h1.369l0.232,1.727
			c0.589-1.292,1.712-1.938,3.369-1.938C83.455,140.2,83.841,140.271,84.108,140.41z"/>
		<path fill="#FFFFFF" d="M95.749,149.611l-0.105,1.326c-0.393,0.14-0.814,0.21-1.263,0.21c-0.548,0-0.979-0.119-1.295-0.358
			c-0.316-0.238-0.516-0.639-0.6-1.2c-0.323,0.491-0.796,0.874-1.421,1.147c-0.625,0.274-1.281,0.411-1.969,0.411
			c-1.038,0-1.894-0.242-2.568-0.726c-0.674-0.484-1.01-1.183-1.01-2.095c0-0.801,0.35-1.491,1.052-2.074
			c0.702-0.582,1.719-0.987,3.053-1.211l2.8-0.463v-0.59c0-0.702-0.217-1.263-0.653-1.684c-0.435-0.421-1.039-0.631-1.81-0.631
			c-0.702,0-1.309,0.168-1.822,0.505c-0.512,0.337-0.909,0.836-1.189,1.495l-1.242-0.905c0.281-0.786,0.803-1.411,1.568-1.874
			c0.765-0.463,1.659-0.695,2.685-0.695c1.249,0,2.252,0.303,3.01,0.905c0.758,0.604,1.137,1.495,1.137,2.674v5.179
			c0,0.253,0.063,0.442,0.189,0.568c0.126,0.127,0.33,0.19,0.61,0.19S95.468,149.681,95.749,149.611z M91.465,149.043
			c0.639-0.422,0.958-0.969,0.958-1.643v-1.453l-2.358,0.442c-0.94,0.169-1.643,0.411-2.105,0.727
			c-0.463,0.315-0.695,0.719-0.695,1.211c0,0.435,0.168,0.768,0.505,1c0.337,0.232,0.807,0.347,1.411,0.347
			C90.065,149.675,90.827,149.464,91.465,149.043z"/>
		<path fill="#FFFFFF" d="M99.791,148.117c0,0.533,0.08,0.902,0.242,1.105c0.161,0.204,0.46,0.305,0.895,0.305
			c0.295,0,0.55-0.021,0.768-0.063c0.217-0.042,0.473-0.119,0.768-0.232l-0.274,1.621c-0.463,0.197-0.982,0.295-1.558,0.295
			c-0.856,0-1.491-0.232-1.905-0.695c-0.414-0.463-0.62-1.172-0.62-2.126v-12.759h1.684V148.117z"/>
		<path fill="#FFFFFF" d="M106.634,148.98c0.281,0.379,0.421,0.87,0.421,1.473c0,0.744-0.189,1.432-0.568,2.063
			s-0.954,1.129-1.726,1.495l-0.884-0.821c0.547-0.183,1.003-0.471,1.368-0.863c0.365-0.393,0.597-0.822,0.695-1.284l-0.084-0.042
			c-0.127,0.098-0.323,0.147-0.59,0.147c-0.294,0-0.561-0.116-0.8-0.347c-0.239-0.232-0.358-0.558-0.358-0.979
			c0-0.379,0.133-0.708,0.4-0.99c0.266-0.28,0.589-0.421,0.968-0.421C105.967,148.411,106.353,148.601,106.634,148.98z"/>
		<path fill="#FFFFFF" d="M118.255,150.548c-0.814-0.4-1.41-0.992-1.79-1.779l1.369-0.948c0.238,0.618,0.653,1.081,1.243,1.39
			c0.589,0.309,1.284,0.463,2.084,0.463c0.828,0,1.46-0.148,1.895-0.442c0.435-0.295,0.653-0.667,0.653-1.116
			c0-0.407-0.204-0.734-0.61-0.979c-0.407-0.246-1.123-0.46-2.148-0.642c-1.01-0.183-1.811-0.403-2.4-0.663
			c-0.589-0.26-1.018-0.59-1.284-0.99c-0.267-0.4-0.4-0.894-0.4-1.484c0-0.575,0.168-1.101,0.505-1.579
			c0.337-0.477,0.822-0.86,1.453-1.147c0.631-0.287,1.361-0.432,2.189-0.432c1.123,0,2.025,0.208,2.705,0.621
			c0.681,0.414,1.168,1.049,1.463,1.905l-1.431,0.842c-0.225-0.674-0.566-1.158-1.021-1.452c-0.456-0.295-1.029-0.442-1.716-0.442
			c-0.688,0-1.271,0.155-1.747,0.463c-0.478,0.309-0.716,0.666-0.716,1.074c0,0.463,0.207,0.821,0.621,1.074
			c0.413,0.253,1.154,0.47,2.221,0.653c1.46,0.239,2.491,0.597,3.095,1.074c0.604,0.478,0.905,1.151,0.905,2.021
			c0,0.604-0.178,1.14-0.537,1.61c-0.358,0.471-0.871,0.839-1.537,1.106c-0.667,0.266-1.442,0.4-2.326,0.4
			C119.982,151.148,119.069,150.948,118.255,150.548z"/>
		<path fill="#FFFFFF" d="M137.982,149.611l-0.105,1.326c-0.393,0.14-0.814,0.21-1.263,0.21c-0.548,0-0.979-0.119-1.295-0.358
			s-0.516-0.639-0.6-1.2c-0.323,0.491-0.796,0.874-1.421,1.147c-0.625,0.274-1.281,0.411-1.969,0.411
			c-1.038,0-1.894-0.242-2.568-0.726c-0.674-0.484-1.01-1.183-1.01-2.095c0-0.801,0.35-1.491,1.052-2.074
			c0.702-0.582,1.719-0.987,3.053-1.211l2.8-0.463v-0.59c0-0.702-0.217-1.263-0.653-1.684c-0.435-0.421-1.039-0.631-1.81-0.631
			c-0.702,0-1.309,0.168-1.822,0.505c-0.512,0.337-0.909,0.836-1.189,1.495l-1.242-0.905c0.281-0.786,0.803-1.411,1.568-1.874
			c0.765-0.463,1.659-0.695,2.685-0.695c1.249,0,2.252,0.303,3.01,0.905c0.758,0.604,1.137,1.495,1.137,2.674v5.179
			c0,0.253,0.063,0.442,0.189,0.568c0.126,0.127,0.33,0.19,0.61,0.19S137.701,149.681,137.982,149.611z M133.697,149.043
			c0.639-0.422,0.958-0.969,0.958-1.643v-1.453l-2.358,0.442c-0.94,0.169-1.643,0.411-2.105,0.727
			c-0.463,0.315-0.695,0.719-0.695,1.211c0,0.435,0.168,0.768,0.505,1c0.337,0.232,0.807,0.347,1.411,0.347
			C132.298,149.675,133.059,149.464,133.697,149.043z"/>
		<path fill="#FFFFFF" d="M149.54,140.41v10.527h-1.473l-0.106-1.6c-0.702,1.207-1.958,1.811-3.769,1.811
			c-1.137,0-2.067-0.316-2.79-0.948c-0.723-0.631-1.084-1.599-1.084-2.905v-6.884h1.684v6.442c0,1.025,0.21,1.752,0.631,2.179
			c0.421,0.429,1.039,0.642,1.853,0.642c0.968,0,1.772-0.295,2.41-0.884c0.639-0.59,0.959-1.474,0.959-2.653v-5.727H149.54z"/>
		<path fill="#FFFFFF" d="M162.803,135.568v15.369h-1.473l-0.106-1.832c-0.309,0.618-0.783,1.112-1.421,1.484
			c-0.639,0.372-1.365,0.558-2.179,0.558c-1.473,0-2.642-0.488-3.505-1.463s-1.295-2.312-1.295-4.01s0.432-3.036,1.295-4.011
			c0.863-0.976,2.031-1.463,3.505-1.463c0.772,0,1.463,0.169,2.074,0.506c0.61,0.337,1.084,0.786,1.421,1.347v-6.485H162.803z
			 M160.224,148.621c0.597-0.702,0.895-1.642,0.895-2.821v-0.253c0-1.178-0.298-2.119-0.895-2.821
			c-0.597-0.702-1.4-1.052-2.41-1.052c-1.025,0-1.832,0.361-2.422,1.084c-0.589,0.724-0.884,1.695-0.884,2.916
			c0,1.221,0.295,2.193,0.884,2.916c0.59,0.723,1.397,1.085,2.422,1.085C158.824,149.675,159.628,149.324,160.224,148.621z"/>
		<path fill="#FFFFFF" d="M176.193,149.611l-0.105,1.326c-0.393,0.14-0.814,0.21-1.263,0.21c-0.548,0-0.979-0.119-1.295-0.358
			s-0.516-0.639-0.6-1.2c-0.323,0.491-0.796,0.874-1.421,1.147c-0.625,0.274-1.281,0.411-1.969,0.411
			c-1.038,0-1.894-0.242-2.568-0.726c-0.674-0.484-1.01-1.183-1.01-2.095c0-0.801,0.35-1.491,1.052-2.074
			c0.702-0.582,1.719-0.987,3.053-1.211l2.8-0.463v-0.59c0-0.702-0.217-1.263-0.653-1.684c-0.435-0.421-1.039-0.631-1.81-0.631
			c-0.702,0-1.309,0.168-1.822,0.505c-0.512,0.337-0.909,0.836-1.189,1.495l-1.242-0.905c0.281-0.786,0.803-1.411,1.568-1.874
			c0.765-0.463,1.659-0.695,2.685-0.695c1.249,0,2.252,0.303,3.01,0.905c0.758,0.604,1.137,1.495,1.137,2.674v5.179
			c0,0.253,0.063,0.442,0.189,0.568c0.126,0.127,0.33,0.19,0.61,0.19S175.912,149.681,176.193,149.611z M171.909,149.043
			c0.639-0.422,0.958-0.969,0.958-1.643v-1.453l-2.358,0.442c-0.94,0.169-1.643,0.411-2.105,0.727
			c-0.463,0.315-0.695,0.719-0.695,1.211c0,0.435,0.168,0.768,0.505,1c0.337,0.232,0.807,0.347,1.411,0.347
			C170.509,149.675,171.27,149.464,171.909,149.043z"/>
		<path fill="#FFFFFF" d="M187.32,141.663c0.863,0.976,1.294,2.313,1.294,4.011s-0.431,3.035-1.294,4.01
			c-0.864,0.976-2.032,1.463-3.506,1.463c-0.814,0-1.541-0.186-2.179-0.558c-0.639-0.372-1.112-0.866-1.421-1.484l-0.105,1.832
			h-1.474v-15.369h1.685v6.485c0.336-0.561,0.81-1.01,1.421-1.347c0.61-0.336,1.302-0.506,2.074-0.506
			C185.288,140.2,186.456,140.688,187.32,141.663z M186.046,148.59c0.589-0.723,0.884-1.695,0.884-2.916
			c0-1.222-0.295-2.193-0.884-2.916c-0.59-0.723-1.397-1.084-2.421-1.084c-1.011,0-1.814,0.351-2.411,1.052
			c-0.597,0.702-0.894,1.643-0.894,2.821v0.253c0,1.179,0.298,2.119,0.894,2.821c0.597,0.702,1.4,1.053,2.411,1.053
			C184.649,149.675,185.456,149.313,186.046,148.59z"/>
		<path fill="#FFFFFF" d="M193.499,148.117c0,0.533,0.08,0.902,0.242,1.105c0.161,0.204,0.46,0.305,0.895,0.305
			c0.295,0,0.55-0.021,0.768-0.063c0.217-0.042,0.473-0.119,0.768-0.232l-0.274,1.621c-0.463,0.197-0.982,0.295-1.558,0.295
			c-0.856,0-1.491-0.232-1.905-0.695c-0.414-0.463-0.62-1.172-0.62-2.126v-12.759h1.684V148.117z"/>
		<path fill="#FFFFFF" d="M207.289,146.306h-7.937c0.098,1.067,0.452,1.894,1.063,2.484c0.611,0.589,1.401,0.884,2.369,0.884
			c0.772,0,1.414-0.134,1.927-0.401c0.512-0.266,0.86-0.653,1.042-1.157l1.41,0.736c-0.421,0.745-0.982,1.313-1.684,1.706
			c-0.702,0.392-1.6,0.589-2.695,0.589c-1.586,0-2.832-0.484-3.737-1.452c-0.905-0.969-1.358-2.309-1.358-4.021
			c0-1.713,0.432-3.053,1.295-4.021c0.863-0.969,2.087-1.453,3.674-1.453c0.982,0,1.831,0.218,2.547,0.653
			c0.716,0.435,1.256,1.025,1.621,1.768c0.364,0.745,0.547,1.579,0.547,2.506C207.373,145.52,207.345,145.913,207.289,146.306z
			 M200.415,142.495c-0.568,0.548-0.916,1.32-1.041,2.316h6.379c-0.112-0.982-0.435-1.751-0.969-2.305
			c-0.533-0.555-1.242-0.832-2.126-0.832C201.731,141.674,200.983,141.948,200.415,142.495z"/>
		<path fill="#FFFFFF" d="M226.7,146.306h-7.937c0.098,1.067,0.452,1.894,1.063,2.484c0.611,0.589,1.401,0.884,2.369,0.884
			c0.772,0,1.414-0.134,1.927-0.401c0.512-0.266,0.86-0.653,1.042-1.157l1.41,0.736c-0.421,0.745-0.982,1.313-1.684,1.706
			c-0.702,0.392-1.6,0.589-2.695,0.589c-1.586,0-2.832-0.484-3.737-1.452c-0.905-0.969-1.358-2.309-1.358-4.021
			c0-1.713,0.432-3.053,1.295-4.021c0.863-0.969,2.087-1.453,3.674-1.453c0.982,0,1.831,0.218,2.547,0.653
			c0.716,0.435,1.256,1.025,1.621,1.768c0.364,0.745,0.547,1.579,0.547,2.506C226.783,145.52,226.756,145.913,226.7,146.306z
			 M219.825,142.495c-0.568,0.548-0.916,1.32-1.041,2.316h6.379c-0.112-0.982-0.435-1.751-0.969-2.305
			c-0.533-0.555-1.242-0.832-2.126-0.832C221.142,141.674,220.394,141.948,219.825,142.495z"/>
		<path fill="#FFFFFF" d="M244.269,140.927c0.723,0.484,1.287,1.175,1.695,2.074l-1.6,0.757c-0.45-1.389-1.383-2.084-2.801-2.084
			c-1.052,0-1.877,0.354-2.473,1.063c-0.597,0.709-0.894,1.688-0.894,2.938s0.298,2.228,0.894,2.937
			c0.597,0.709,1.421,1.063,2.473,1.063c0.814,0,1.47-0.186,1.969-0.558c0.498-0.372,0.824-0.909,0.979-1.611l1.558,0.548
			c-0.365,0.982-0.926,1.744-1.684,2.284c-0.758,0.541-1.685,0.811-2.779,0.811c-1.586,0-2.832-0.484-3.737-1.452
			c-0.905-0.969-1.358-2.309-1.358-4.021c0-1.713,0.453-3.053,1.358-4.021c0.905-0.969,2.151-1.453,3.737-1.453
			C242.657,140.2,243.545,140.443,244.269,140.927z"/>
		<path fill="#FFFFFF" d="M257.216,141.653c0.905,0.968,1.358,2.309,1.358,4.021c0,1.713-0.452,3.053-1.358,4.021
			c-0.905,0.968-2.151,1.452-3.737,1.452c-1.586,0-2.832-0.484-3.737-1.452c-0.905-0.969-1.358-2.309-1.358-4.021
			c0-1.713,0.453-3.053,1.358-4.021c0.905-0.969,2.151-1.453,3.737-1.453C255.064,140.2,256.31,140.684,257.216,141.653z
			 M250.973,142.727c-0.604,0.716-0.905,1.698-0.905,2.948s0.301,2.232,0.905,2.947c0.604,0.716,1.439,1.074,2.506,1.074
			c1.067,0,1.902-0.358,2.506-1.074c0.604-0.715,0.905-1.697,0.905-2.947s-0.302-2.232-0.905-2.948
			c-0.604-0.716-1.439-1.074-2.506-1.074C252.412,141.653,251.577,142.011,250.973,142.727z"/>
		<path fill="#FFFFFF" d="M276.037,140.632c0.61,0.287,1.105,0.734,1.484,1.336c0.38,0.604,0.569,1.347,0.569,2.232v6.737h-1.684
			v-6.568c0-0.912-0.229-1.59-0.685-2.032c-0.456-0.442-1.056-0.663-1.8-0.663c-0.562,0-1.078,0.137-1.548,0.41
			c-0.47,0.274-0.85,0.674-1.137,1.2c-0.287,0.527-0.431,1.155-0.431,1.884v5.769h-1.685v-6.568c0-0.912-0.228-1.59-0.684-2.032
			c-0.456-0.442-1.057-0.663-1.8-0.663c-0.506,0-0.997,0.129-1.474,0.389c-0.477,0.26-0.87,0.664-1.179,1.211
			c-0.309,0.547-0.462,1.228-0.462,2.042v5.622h-1.685V140.41h1.474l0.105,1.643c0.365-0.617,0.845-1.08,1.442-1.39
			c0.597-0.309,1.238-0.463,1.927-0.463c0.772,0,1.484,0.176,2.137,0.527c0.653,0.351,1.147,0.863,1.484,1.537
			c0.309-0.674,0.813-1.186,1.516-1.537c0.702-0.351,1.418-0.527,2.147-0.527C274.77,140.2,275.426,140.345,276.037,140.632z"/>
		<path fill="#FFFFFF" d="M290.585,141.663c0.863,0.976,1.294,2.313,1.294,4.011s-0.431,3.035-1.294,4.01
			c-0.864,0.976-2.032,1.463-3.506,1.463c-0.772,0-1.463-0.168-2.074-0.506c-0.611-0.336-1.085-0.785-1.421-1.347v6.064H281.9
			V140.41h1.474l0.105,1.832c0.309-0.617,0.782-1.112,1.421-1.484c0.638-0.371,1.365-0.558,2.179-0.558
			C288.553,140.2,289.721,140.688,290.585,141.663z M289.311,148.59c0.589-0.723,0.884-1.695,0.884-2.916
			c0-1.222-0.295-2.193-0.884-2.916c-0.59-0.723-1.397-1.084-2.421-1.084c-1.011,0-1.814,0.351-2.411,1.052
			c-0.597,0.702-0.894,1.643-0.894,2.821v0.253c0,1.179,0.298,2.119,0.894,2.821c0.597,0.702,1.4,1.053,2.411,1.053
			C287.914,149.675,288.721,149.313,289.311,148.59z"/>
		<path fill="#FFFFFF" d="M301.29,140.41l-0.337,1.643c-0.336-0.183-0.779-0.274-1.326-0.274c-0.45,0-0.888,0.13-1.316,0.39
			c-0.428,0.26-0.779,0.653-1.052,1.179c-0.274,0.526-0.41,1.161-0.41,1.905v5.684h-1.685V140.41h1.369l0.232,1.727
			c0.589-1.292,1.712-1.938,3.369-1.938C300.638,140.2,301.023,140.271,301.29,140.41z"/>
		<path fill="#FFFFFF" d="M311.596,141.653c0.905,0.968,1.358,2.309,1.358,4.021c0,1.713-0.452,3.053-1.358,4.021
			c-0.905,0.968-2.151,1.452-3.737,1.452s-2.832-0.484-3.737-1.452c-0.905-0.969-1.358-2.309-1.358-4.021
			c0-1.713,0.453-3.053,1.358-4.021c0.905-0.969,2.151-1.453,3.737-1.453S310.691,140.684,311.596,141.653z M305.353,142.727
			c-0.604,0.716-0.905,1.698-0.905,2.948s0.301,2.232,0.905,2.947c0.604,0.716,1.439,1.074,2.506,1.074s1.902-0.358,2.506-1.074
			c0.604-0.715,0.905-1.697,0.905-2.947s-0.302-2.232-0.905-2.948s-1.439-1.074-2.506-1.074S305.957,142.011,305.353,142.727z"/>
		<path fill="#FFFFFF" d="M330.418,140.632c0.61,0.287,1.105,0.734,1.484,1.336c0.38,0.604,0.569,1.347,0.569,2.232v6.737h-1.684
			v-6.568c0-0.912-0.229-1.59-0.685-2.032c-0.456-0.442-1.056-0.663-1.8-0.663c-0.562,0-1.078,0.137-1.548,0.41
			c-0.47,0.274-0.85,0.674-1.137,1.2c-0.287,0.527-0.431,1.155-0.431,1.884v5.769h-1.685v-6.568c0-0.912-0.228-1.59-0.684-2.032
			c-0.456-0.442-1.057-0.663-1.8-0.663c-0.505,0-0.997,0.129-1.474,0.389c-0.477,0.26-0.87,0.664-1.179,1.211
			c-0.309,0.547-0.462,1.228-0.462,2.042v5.622h-1.685V140.41h1.474l0.105,1.643c0.365-0.617,0.845-1.08,1.442-1.39
			c0.597-0.309,1.238-0.463,1.927-0.463c0.772,0,1.484,0.176,2.137,0.527c0.653,0.351,1.147,0.863,1.484,1.537
			c0.309-0.674,0.813-1.186,1.516-1.537c0.702-0.351,1.418-0.527,2.147-0.527C329.15,140.2,329.806,140.345,330.418,140.632z"/>
		<path fill="#FFFFFF" d="M345.228,146.306h-7.937c0.098,1.067,0.452,1.894,1.063,2.484c0.611,0.589,1.401,0.884,2.369,0.884
			c0.772,0,1.414-0.134,1.927-0.401c0.512-0.266,0.86-0.653,1.042-1.157l1.41,0.736c-0.421,0.745-0.982,1.313-1.684,1.706
			c-0.702,0.392-1.6,0.589-2.695,0.589c-1.586,0-2.832-0.484-3.737-1.452c-0.905-0.969-1.358-2.309-1.358-4.021
			c0-1.713,0.432-3.053,1.295-4.021c0.863-0.969,2.087-1.453,3.674-1.453c0.982,0,1.831,0.218,2.547,0.653
			c0.716,0.435,1.256,1.025,1.621,1.768c0.364,0.745,0.547,1.579,0.547,2.506C345.312,145.52,345.284,145.913,345.228,146.306z
			 M338.354,142.495c-0.568,0.548-0.915,1.32-1.041,2.316h6.379c-0.112-0.982-0.435-1.751-0.969-2.305
			c-0.533-0.555-1.242-0.832-2.126-0.832C339.67,141.674,338.923,141.948,338.354,142.495z"/>
		<path fill="#FFFFFF" d="M354.639,150.2c-0.702,0.631-1.607,0.948-2.716,0.948c-0.856,0-1.555-0.232-2.095-0.695
			c-0.54-0.463-0.817-1.172-0.831-2.126v-6.464h-2.106v-1.453h2.106v-2.526l1.684-0.463v2.989h3.895v1.453h-3.895v6.168
			c0,0.506,0.144,0.888,0.432,1.147c0.287,0.26,0.67,0.39,1.147,0.39c0.674,0,1.27-0.26,1.79-0.779L354.639,150.2z"/>
		<path fill="#FFFFFF" d="M356.945,138.043c-0.232-0.232-0.347-0.537-0.347-0.916c0-0.379,0.116-0.684,0.347-0.916
			s0.537-0.347,0.915-0.347c0.38,0,0.685,0.116,0.916,0.347s0.347,0.537,0.347,0.916c0,0.38-0.116,0.685-0.347,0.916
			s-0.537,0.347-0.916,0.347C357.481,138.39,357.176,138.274,356.945,138.043z M358.703,150.938h-1.685V140.41h1.685V150.938z"/>
		<path fill="#FFFFFF" d="M371.966,135.568v15.369h-1.473l-0.106-1.832c-0.309,0.618-0.783,1.112-1.421,1.484
			c-0.639,0.372-1.365,0.558-2.179,0.558c-1.473,0-2.642-0.488-3.505-1.463s-1.295-2.312-1.295-4.01s0.432-3.036,1.295-4.011
			c0.863-0.976,2.031-1.463,3.505-1.463c0.772,0,1.463,0.169,2.074,0.506c0.61,0.337,1.084,0.786,1.421,1.347v-6.485H371.966z
			 M369.387,148.621c0.597-0.702,0.895-1.642,0.895-2.821v-0.253c0-1.178-0.298-2.119-0.895-2.821
			c-0.597-0.702-1.4-1.052-2.41-1.052c-1.025,0-1.832,0.361-2.422,1.084c-0.589,0.724-0.884,1.695-0.884,2.916
			c0,1.221,0.295,2.193,0.884,2.916c0.59,0.723,1.397,1.085,2.422,1.085C367.987,149.675,368.79,149.324,369.387,148.621z"/>
		<path fill="#FFFFFF" d="M385.356,149.611l-0.105,1.326c-0.393,0.14-0.814,0.21-1.263,0.21c-0.548,0-0.979-0.119-1.295-0.358
			s-0.516-0.639-0.6-1.2c-0.323,0.491-0.796,0.874-1.421,1.147c-0.625,0.274-1.281,0.411-1.969,0.411
			c-1.038,0-1.894-0.242-2.568-0.726c-0.674-0.484-1.01-1.183-1.01-2.095c0-0.801,0.35-1.491,1.052-2.074
			c0.702-0.582,1.719-0.987,3.053-1.211l2.8-0.463v-0.59c0-0.702-0.217-1.263-0.653-1.684c-0.435-0.421-1.039-0.631-1.81-0.631
			c-0.702,0-1.309,0.168-1.822,0.505c-0.512,0.337-0.909,0.836-1.189,1.495l-1.242-0.905c0.281-0.786,0.803-1.411,1.568-1.874
			c0.765-0.463,1.659-0.695,2.685-0.695c1.249,0,2.252,0.303,3.01,0.905c0.758,0.604,1.137,1.495,1.137,2.674v5.179
			c0,0.253,0.063,0.442,0.189,0.568c0.126,0.127,0.33,0.19,0.61,0.19C384.794,149.717,385.075,149.681,385.356,149.611z
			 M381.072,149.043c0.639-0.422,0.958-0.969,0.958-1.643v-1.453l-2.358,0.442c-0.94,0.169-1.642,0.411-2.105,0.727
			c-0.463,0.315-0.695,0.719-0.695,1.211c0,0.435,0.168,0.768,0.505,1c0.337,0.232,0.807,0.347,1.411,0.347
			C379.672,149.675,380.433,149.464,381.072,149.043z"/>
	</g>
</g>
</svg>
