<?xml version="1.0" encoding="utf-8"?>
<!-- Generator: Adobe Illustrator 17.0.0, SVG Export Plug-In . SVG Version: 6.00 Build 0)  -->
<!DOCTYPE svg PUBLIC "-//W3C//DTD SVG 1.1//EN" "http://www.w3.org/Graphics/SVG/1.1/DTD/svg11.dtd">
<svg version="1.1" id="Capa_1" xmlns="http://www.w3.org/2000/svg" xmlns:xlink="http://www.w3.org/1999/xlink" x="0px" y="0px"
	 width="599.977px" height="75px" viewBox="0 0 599.977 75" enable-background="new 0 0 599.977 75" xml:space="preserve">
<g>
	<g>
		<g>
			<path fill="#1D1D1B" d="M0.023,21.159h40.424v31.37l0.023,0.925c0,11.253-9.06,20.368-20.236,20.368
				C9.055,73.822,0,64.708,0,53.454l0.023-0.925V21.159z M3.903,33.549c0.574,2.704,4.66,5.468,7.219,0l-3.641-3.412L3.903,33.549z
				 M4.646,29.811l-0.006,1.69l1.862-1.679L4.646,29.811z M10.388,29.803H8.532l1.856,1.682V29.803z M3.903,48.029
				c0.574,2.704,4.66,5.471,7.219,0l-3.641-3.407L3.903,48.029z M4.646,44.288L4.64,45.982l1.862-1.693H4.646z M10.388,44.288H8.532
				l1.856,1.682V44.288z M29.34,48.029c0.574,2.704,4.666,5.471,7.227,0l-3.646-3.407L29.34,48.029z M30.082,44.3l-0.006,1.682
				l1.867-1.682H30.082z M35.83,44.288h-1.856l1.856,1.682V44.288z M29.34,33.549c0.574,2.704,4.666,5.468,7.227,0l-3.646-3.412
				L29.34,33.549z M30.082,29.811l-0.006,1.69l1.867-1.679L30.082,29.811z M35.83,29.803h-1.856l1.856,1.682V29.803z M21.741,25.297
				c0-0.837-0.677-1.516-1.508-1.516c-0.831,0-1.511,0.68-1.511,1.516H21.741z M18.74,28.452h2.984v-2.025H18.74V28.452z
				 M17.039,29.863v3.552h2.493v-1.593h1.222v1.593h2.676v-3.552H17.039z M24.434,34.885l-0.425-0.611h-7.427l-0.551,0.611H24.434z
				 M8.486,60.133H31.99V58.3H8.486V60.133z M17.207,67.183l-0.174-1.322l-2.598-0.959l-0.077-0.937l-1.108,0.066l0.049,1.245
				l-0.58,0.405l0.568,0.837L14,65.938L17.207,67.183z M17.395,68.185l-3.324,0.865l-0.64-0.654l-0.662,0.771l0.534,0.463
				l-0.188,1.108l1.102,0.186l0.168-0.791l3.067-0.765L17.395,68.185z M23.183,66.998l3.269-1.054l0.68,0.625l0.614-0.808
				l-0.554-0.443l0.117-1.242l-1.102-0.123l-0.128,0.931l-2.65,0.814L23.183,66.998z M22.932,67.997l-0.123,1.176l3.024,0.931
				l0.123,0.808l1.114-0.123l-0.128-1.116l0.56-0.44l-0.62-0.802l-0.674,0.62L22.932,67.997z M18.301,68.297
				c0,0.982,0.851,1.773,1.907,1.773c1.042,0,1.899-0.791,1.899-1.773l-0.054-0.411l-0.563,0.283v0.825h-2.578v-0.848l-0.551-0.288
				L18.301,68.297z M17.347,64.996c0,1.339,0.902,2.459,2.136,2.784v0.702h1.388v-0.694c1.259-0.3,2.19-1.436,2.19-2.793
				c0-1.588-1.276-2.875-2.853-2.875C18.623,62.12,17.347,63.408,17.347,64.996 M24.914,51.827l-9.363,3.746v1.862h2.37v-2.376
				h1.037v2.376h2.661v-2.376h1.031v2.376h2.264V51.827z M24.914,47.004l-9.363,3.752v3.729l9.363-3.746V47.004z M24.914,42.187
				l-9.363,3.746v3.735l9.363-3.752V42.187z M24.914,37.358l-9.363,3.752v3.735l9.363-3.752V37.358z M15.551,35.768v4.255
				l9.363-3.746v-0.508H15.551z"/>
		</g>
		<g>
			<rect x="8.909" y="17.479" fill="#1D1D1B" width="22.655" height="2.207"/>
		</g>
		<g>
			<rect x="17.918" y="45.18" fill="#1D1D1B" width="1.034" height="1.596"/>
		</g>
		<g>
			<rect x="21.633" y="45.031" fill="#1D1D1B" width="1.034" height="1.593"/>
		</g>
		<g>
			<rect x="17.918" y="50.003" fill="#1D1D1B" width="1.034" height="1.596"/>
		</g>
		<g>
			<rect x="21.665" y="49.86" fill="#1D1D1B" width="1.034" height="1.593"/>
		</g>
		<g>
			<rect x="17.918" y="40.34" fill="#1D1D1B" width="1.034" height="1.596"/>
		</g>
		<g>
			<rect x="21.633" y="40.217" fill="#1D1D1B" width="1.034" height="1.596"/>
		</g>
		<g>
			<path fill="#1D1D1B" d="M18.782,16.069V8.776c0,0-1.131-1.61-3.184-1.199c-2.51,0.508-2.19,3.589-0.246,7.35l0.585,1.148h-2.716
				l-1.311-3.112c0,0-1.322-3.038-0.134-4.766c0,0-0.611-0.771-2.056-0.568c-1.562,0.24-2.33,1.827-1.311,3.512
				c0,0,0.445,0.842,1.827,3.032l1.299,1.89l-2.887,0.006l-2.43-3.618c0,0-2.03-3.067,0.377-5.525c0,0,1.513-1.753,4.446-1.182
				c0,0,1.393,0.228,1.939,0.868c0,0,1.017-1.088,3.324-0.942c0,0,2.399,0.029,3.926,1.608c1.533-1.533,3.923-1.608,3.923-1.608
				c2.31-0.146,3.324,0.942,3.324,0.942c0.548-0.64,1.947-0.868,1.947-0.868c2.927-0.571,4.437,1.182,4.437,1.182
				c2.416,2.459,0.38,5.525,0.38,5.525l-2.43,3.618l-2.884-0.006l1.294-1.89c1.388-2.19,1.833-3.032,1.833-3.032
				c1.017-1.685,0.251-3.272-1.314-3.512c-1.445-0.203-2.059,0.568-2.059,0.568c1.188,1.728-0.134,4.766-0.134,4.766l-1.305,3.112
				h-2.721l0.585-1.148c1.953-3.761,2.27-6.842-0.24-7.35c-2.05-0.411-3.19,1.199-3.19,1.199v7.293h-0.451h-1.99H18.782z"/>
		</g>
		<g>
			<path fill="#1D1D1B" d="M20.624,65.745c0,0.468,0.371,0.842,0.834,0.842c0.46,0,0.831-0.374,0.831-0.842
				c0-0.463-0.371-0.837-0.831-0.837C20.996,64.908,20.624,65.282,20.624,65.745 M18.114,65.733c0,0.463,0.374,0.842,0.831,0.842
				c0.468,0,0.837-0.38,0.837-0.842c0-0.463-0.368-0.842-0.837-0.842C18.488,64.891,18.114,65.271,18.114,65.733 M20.69,67.406
				l-0.24-0.417l-0.246-0.425l-0.246,0.425l-0.246,0.417h0.491H20.69z"/>
		</g>
		<g>
			<polygon fill="#1D1D1B" points="23.04,2.036 21.004,2.036 21.004,0 19.428,0 19.428,2.036 17.386,2.036 17.386,3.621 
				19.428,3.621 19.428,5.654 21.004,5.654 21.004,3.621 23.04,3.621 			"/>
		</g>
		<g>
			<rect x="17.918" y="45.18" fill="#1D1D1B" width="1.034" height="1.596"/>
		</g>
		<g>
			<rect x="21.633" y="45.031" fill="#1D1D1B" width="1.034" height="1.593"/>
		</g>
		<g>
			<rect x="17.918" y="50.003" fill="#1D1D1B" width="1.034" height="1.596"/>
		</g>
		<g>
			<rect x="21.665" y="49.86" fill="#1D1D1B" width="1.034" height="1.593"/>
		</g>
		<g>
			<rect x="17.918" y="40.34" fill="#1D1D1B" width="1.034" height="1.596"/>
		</g>
		<g>
			<rect x="21.633" y="40.217" fill="#1D1D1B" width="1.034" height="1.596"/>
		</g>
		<g>
			<path fill="#1D1D1B" d="M20.624,65.745c0,0.468,0.371,0.842,0.834,0.842c0.46,0,0.831-0.374,0.831-0.842
				c0-0.463-0.371-0.837-0.831-0.837C20.996,64.908,20.624,65.282,20.624,65.745 M18.114,65.733c0,0.463,0.374,0.842,0.831,0.842
				c0.468,0,0.837-0.38,0.837-0.842c0-0.463-0.368-0.842-0.837-0.842C18.488,64.891,18.114,65.271,18.114,65.733 M20.69,67.406
				l-0.24-0.417l-0.246-0.425l-0.246,0.425l-0.246,0.417h0.491H20.69z"/>
		</g>
	</g>
	<g>
		<path fill="#1D1D1B" d="M70.923,59.95c-0.668,0.351-1.985,0.597-3.107,0.597c-3.015,0-4.8-2.184-4.8-5.086
			c0-2.921,1.825-5.163,4.746-5.163c1.014,0,1.985,0.14,3.061,0.751l0.2-2.407c-1.031-0.408-2.27-0.591-3.207-0.591
			c-4.8,0-7.767,2.733-7.767,7.615c0,4.817,3.184,7.127,7.767,7.127c1.076,0,2.199-0.206,3.229-0.451L70.923,59.95z"/>
	</g>
	<g>
		<g>
			<path fill="#1D1D1B" d="M74.946,57.034c0-1.573,0.848-3.13,2.616-3.13c1.785,0,2.636,1.516,2.636,3.13
				c0,1.756-0.545,3.635-2.636,3.635C75.492,60.669,74.946,58.767,74.946,57.034 M72.102,57.363c0,3.021,2.013,5.431,5.46,5.431
				c3.466,0,5.474-2.41,5.474-5.431c0-3.475-2.376-5.577-5.474-5.577C74.478,51.786,72.102,53.887,72.102,57.363"/>
		</g>
	</g>
	<g>
		<path fill="#1D1D1B" d="M85.047,62.547h2.716v-5.146c0-1.351,0.428-3.498,2.399-3.498c1.739,0,1.762,1.742,1.762,3.03v5.614h2.721
			v-6.636c0-2.37-1.077-4.126-3.552-4.126c-1.416,0-2.576,0.468-3.429,1.673h-0.04V52.03h-2.576V62.547z"/>
	</g>
	<g>
		<path fill="#1D1D1B" d="M104.339,52.134c-0.748-0.223-1.539-0.351-2.638-0.351c-3.261,0-5.051,2.416-5.051,5.454
			c0,3.207,1.728,5.56,5.157,5.56c1.111,0,1.925-0.106,2.716-0.351l-0.123-2.27c-0.468,0.206-1.314,0.491-2.09,0.491
			c-1.907,0-2.815-1.491-2.815-3.429c0-1.979,1.076-3.329,2.755-3.329c0.837,0,1.359,0.168,1.85,0.391L104.339,52.134z"/>
	</g>
	<g>
		<g>
			<path fill="#1D1D1B" d="M114.586,59.729c-1.014,0.577-2.144,1.062-3.466,1.062c-1.685,0-2.861-0.959-2.984-2.65h7.221
				c0-3.681-1.094-6.35-4.968-6.35c-3.247,0-4.846,2.504-4.846,5.554c0,3.447,2.007,5.448,5.454,5.448
				c1.459,0,2.598-0.291,3.589-0.837V59.729z M108.135,56.256c0.123-1.405,0.891-2.47,2.416-2.47c1.522,0,2.13,1.142,2.213,2.47
				H108.135z"/>
		</g>
	</g>
	<g>
		<rect x="117.436" y="47.236" fill="#1D1D1B" width="2.721" height="15.311"/>
	</g>
	<g>
		<rect x="122.955" y="47.236" fill="#1D1D1B" width="2.716" height="15.311"/>
	</g>
	<g>
		<g>
			<path fill="#1D1D1B" d="M130.577,57.034c0-1.573,0.854-3.13,2.621-3.13c1.785,0,2.63,1.516,2.63,3.13
				c0,1.756-0.545,3.635-2.63,3.635C131.128,60.669,130.577,58.767,130.577,57.034 M127.739,57.363c0,3.021,2.007,5.431,5.46,5.431
				c3.466,0,5.474-2.41,5.474-5.431c0-3.475-2.376-5.577-5.474-5.577C130.114,51.786,127.739,53.887,127.739,57.363"/>
		</g>
	</g>
	<g>
		<g>
			<path fill="#1D1D1B" d="M153.158,62.547h2.638V47.236h-2.721v6.022h-0.04c-0.814-1.005-1.768-1.473-3.127-1.473
				c-3.201,0-4.377,2.576-4.377,5.471c0,2.884,1.176,5.531,4.377,5.531c1.282,0,2.399-0.408,3.207-1.422h0.043V62.547z
				 M148.369,57.256c0-1.405,0.485-3.352,2.253-3.352c1.745,0,2.43,1.885,2.43,3.352c0,1.493-0.585,3.407-2.39,3.407
				C148.877,60.663,148.369,58.707,148.369,57.256"/>
		</g>
	</g>
	<g>
		<path fill="#1D1D1B" d="M185.596,59.95c-0.668,0.351-1.99,0.597-3.107,0.597c-3.015,0-4.8-2.184-4.8-5.086
			c0-2.921,1.825-5.163,4.74-5.163c1.014,0,1.99,0.14,3.067,0.751l0.2-2.407c-1.031-0.408-2.27-0.591-3.207-0.591
			c-4.8,0-7.767,2.733-7.767,7.615c0,4.817,3.19,7.127,7.767,7.127c1.076,0,2.193-0.206,3.23-0.451L185.596,59.95z"/>
	</g>
	<g>
		<g>
			<path fill="#1D1D1B" d="M189.615,57.034c0-1.573,0.848-3.13,2.616-3.13c1.785,0,2.636,1.516,2.636,3.13
				c0,1.756-0.545,3.635-2.636,3.635C190.166,60.669,189.615,58.767,189.615,57.034 M186.771,57.363c0,3.021,2.013,5.431,5.46,5.431
				c3.467,0,5.48-2.41,5.48-5.431c0-3.475-2.381-5.577-5.48-5.577C189.147,51.786,186.771,53.887,186.771,57.363"/>
		</g>
	</g>
	<g>
		<path fill="#1D1D1B" d="M199.78,62.547h2.716v-3.858c0-1.511,0-4.289,2.213-4.289c0.485,0,0.971,0.077,1.216,0.223V51.87
			c-0.286-0.086-0.563-0.086-0.831-0.086c-1.622,0-2.738,1.656-2.861,2.633h-0.037V52.03h-2.416V62.547z"/>
	</g>
	<g>
		<path fill="#1D1D1B" d="M217.081,52.029h-2.716v5.145c0,1.345-0.428,3.492-2.399,3.492c-1.739,0-1.762-1.736-1.762-3.024v-5.614
			h-2.721v6.636c0,2.37,1.076,4.126,3.552,4.126c1.422,0,2.598-0.66,3.429-1.673h0.04v1.428h2.576V52.029z"/>
	</g>
	<g>
		<g>
			<path fill="#1D1D1B" d="M219.763,62.547h2.716v-5.148c0-1.348,0.428-3.489,2.396-3.489c1.739,0,1.762,1.733,1.762,3.021v5.617
				h2.716v-6.636c0-2.37-1.071-4.126-3.546-4.126c-1.422,0-2.576,0.468-3.429,1.673h-0.037v-1.428h-2.576V62.547z M222.076,50.235
				c0-0.391,0.28-0.897,0.994-0.897c0.383,0,0.868,0.183,1.376,0.383c0.528,0.208,0.991,0.368,1.745,0.368
				c1.259,0,1.967-1.102,1.967-2.47h-1.096c0,0.554-0.28,0.999-0.888,0.999c-0.551,0-0.959-0.246-1.482-0.445
				c-0.531-0.208-1.054-0.408-1.645-0.408c-1.194,0-2.07,1.242-2.07,2.47H222.076z"/>
		</g>
	</g>
	<g>
		<g>
			<path fill="#1D1D1B" d="M233.963,59.502c0-1.605,1.807-1.816,3.018-1.816h1.182c0,0.82-0.123,1.57-0.571,2.162
				c-0.423,0.574-1.068,0.942-1.905,0.942C234.711,60.789,233.963,60.398,233.963,59.502 M232.586,54.93
				c0.908-0.691,2.062-1.142,3.224-1.142c1.599,0,2.353,0.574,2.353,2.262h-1.502c-1.136,0-2.476,0.109-3.512,0.614
				c-1.031,0.514-1.785,1.433-1.785,3.007c0,1.996,1.807,3.121,3.652,3.121c1.239,0,2.598-0.657,3.224-1.816h0.046
				c0.02,0.323,0.02,1.019,0.117,1.57h2.396c-0.06-0.814-0.1-1.548-0.123-2.347c-0.02-0.774-0.043-1.57-0.043-2.636v-1.345
				c0-3.107-1.316-4.432-4.5-4.432c-1.154,0-2.576,0.306-3.629,0.797L232.586,54.93z"/>
		</g>
	</g>
	<g>
		<g>
			<path fill="#1D1D1B" d="M58.408,39.703h2.944l1.234-3.272h5.742l1.216,3.272h3.144l-5.56-14.251H63.93L58.408,39.703z
				 M67.536,34.19h-4.138l2.047-5.882h0.037L67.536,34.19z"/>
		</g>
	</g>
	<g>
		<path fill="#1D1D1B" d="M75.62,29.186h-3.001l3.998,11.045c0,1.128-0.674,1.879-1.765,1.879c-0.671,0-1.057-0.06-1.402-0.183
			l-0.183,2.019c0.631,0.188,1.282,0.288,1.93,0.288c2.838,0,3.466-2.284,4.337-4.617l3.915-10.431h-2.761l-2.516,7.673h-0.037
			L75.62,29.186z"/>
	</g>
	<g>
		<path fill="#1D1D1B" d="M94.552,29.186h-2.716v5.145c0,1.345-0.423,3.492-2.399,3.492c-1.739,0-1.762-1.736-1.762-3.024v-5.614
			h-2.721v6.636c0,2.37,1.082,4.126,3.552,4.126c1.422,0,2.593-0.654,3.429-1.679h0.04v1.433h2.576V29.186z"/>
	</g>
	<g>
		<path fill="#1D1D1B" d="M97.232,39.703h2.716v-5.146c0-1.351,0.428-3.492,2.399-3.492c1.739,0,1.762,1.736,1.762,3.024v5.614
			h2.721v-6.642c0-2.364-1.077-4.12-3.552-4.12c-1.422,0-2.576,0.468-3.424,1.673h-0.046v-1.428h-2.576V39.703z"/>
	</g>
	<g>
		<path fill="#1D1D1B" d="M110.398,36.537c0,2.084,1.176,3.407,3.307,3.407c0.808,0,1.445-0.077,2.013-0.24l-0.086-2.167
			c-0.283,0.183-0.751,0.283-1.236,0.283c-1.037,0-1.276-0.837-1.276-1.728v-4.906h2.413v-1.999h-2.413v-2.981l-2.721,0.874v2.107
			h-2.007v1.999h2.007V36.537z"/>
	</g>
	<g>
		<g>
			<path fill="#1D1D1B" d="M119.204,36.656c0-1.61,1.807-1.816,3.018-1.816h1.182c0,0.82-0.123,1.57-0.568,2.167
				c-0.431,0.568-1.076,0.937-1.907,0.937C119.952,37.944,119.204,37.562,119.204,36.656 M117.827,32.085
				c0.908-0.691,2.064-1.142,3.224-1.142c1.599,0,2.353,0.574,2.353,2.264h-1.502c-1.136,0-2.476,0.106-3.512,0.617
				c-1.031,0.508-1.785,1.428-1.785,3.001c0,1.996,1.807,3.121,3.652,3.121c1.239,0,2.598-0.651,3.224-1.816h0.046
				c0.023,0.328,0.023,1.019,0.117,1.57h2.396c-0.06-0.814-0.1-1.548-0.123-2.347c-0.02-0.774-0.043-1.57-0.043-2.636v-1.345
				c0-3.107-1.316-4.432-4.5-4.432c-1.154,0-2.576,0.306-3.629,0.797L117.827,32.085z"/>
		</g>
	</g>
	<g>
		<path fill="#1D1D1B" d="M128.398,39.703h2.715v-5.108c0-1.365,0.228-3.529,2.036-3.529c1.562,0,1.562,1.388,1.562,2.37v6.268
			h2.713v-5.108c0-1.365,0.226-3.529,2.03-3.529c1.562,0,1.562,1.388,1.562,2.37v6.268h2.716v-6.642c0-2.341-0.731-4.12-3.307-4.12
			c-1.276,0-2.638,0.591-3.261,1.859c-0.591-1.305-1.625-1.859-3.084-1.859c-1.017,0-2.253,0.431-3.107,1.713h-0.037v-1.468h-2.538
			V39.703z"/>
	</g>
	<g>
		<g>
			<path fill="#1D1D1B" d="M146.424,39.706h2.716V29.189h-2.716V39.706z M146.424,27.265h2.716v-2.613h-2.716V27.265z"/>
		</g>
	</g>
	<g>
		<g>
			<path fill="#1D1D1B" d="M160.255,36.885c-1.014,0.568-2.15,1.065-3.466,1.065c-1.685,0-2.861-0.965-2.984-2.661h7.221
				c0-3.675-1.099-6.35-4.968-6.35c-3.247,0-4.846,2.516-4.846,5.56c0,3.452,2.007,5.454,5.454,5.454
				c1.459,0,2.598-0.291,3.589-0.848V36.885z M153.805,33.415c0.123-1.411,0.891-2.476,2.416-2.476c1.522,0,2.13,1.142,2.213,2.476
				H153.805z"/>
		</g>
	</g>
	<g>
		<path fill="#1D1D1B" d="M163.043,39.703h2.716v-5.146c0-1.351,0.428-3.492,2.399-3.492c1.739,0,1.762,1.736,1.762,3.024v5.614
			h2.721v-6.642c0-2.364-1.077-4.12-3.552-4.12c-1.422,0-2.576,0.468-3.424,1.673h-0.046v-1.428h-2.576V39.703z"/>
	</g>
	<g>
		<path fill="#1D1D1B" d="M176.208,36.537c0,2.084,1.176,3.407,3.307,3.407c0.814,0,1.445-0.077,2.013-0.24l-0.083-2.167
			c-0.286,0.183-0.754,0.283-1.245,0.283c-1.031,0-1.276-0.837-1.276-1.728v-4.906h2.421v-1.999h-2.421v-2.981l-2.716,0.874v2.107
			h-2.007v1.999h2.007V36.537z"/>
	</g>
	<g>
		<g>
			<path fill="#1D1D1B" d="M185.258,34.19c0-1.573,0.848-3.124,2.616-3.124c1.782,0,2.636,1.511,2.636,3.124
				c0,1.756-0.545,3.635-2.636,3.635C185.81,37.825,185.258,35.923,185.258,34.19 M182.414,34.518c0,3.015,2.013,5.431,5.46,5.431
				c3.467,0,5.474-2.416,5.474-5.431c0-3.475-2.376-5.577-5.474-5.577C184.79,28.942,182.414,31.043,182.414,34.518"/>
		</g>
	</g>
	<g>
		<g>
			<path fill="#1D1D1B" d="M207.834,39.703h2.638V24.386h-2.721v6.022h-0.04c-0.808-0.999-1.762-1.468-3.121-1.468
				c-3.207,0-4.383,2.576-4.383,5.471c0,2.878,1.176,5.531,4.383,5.531c1.276,0,2.399-0.408,3.201-1.422h0.043V39.703z
				 M203.052,34.412c0-1.405,0.48-3.347,2.247-3.347c1.745,0,2.436,1.879,2.436,3.347c0,1.493-0.591,3.407-2.39,3.407
				C203.554,37.818,203.052,35.862,203.052,34.412"/>
		</g>
	</g>
	<g>
		<g>
			<path fill="#1D1D1B" d="M221.528,36.885c-1.014,0.568-2.144,1.065-3.472,1.065c-1.679,0-2.855-0.965-2.978-2.661h7.227
				c0-3.675-1.099-6.35-4.974-6.35c-3.247,0-4.851,2.516-4.851,5.56c0,3.452,2.013,5.454,5.46,5.454
				c1.459,0,2.598-0.291,3.589-0.848V36.885z M215.077,33.415c0.123-1.411,0.891-2.476,2.416-2.476c1.522,0,2.13,1.142,2.207,2.476
				H215.077z"/>
		</g>
	</g>
	<g>
		<g>
			<path fill="#1D1D1B" d="M228.56,39.753h2.938l1.239-3.267h5.742l1.216,3.267h3.144l-5.56-14.251h-3.204L228.56,39.753z
				 M237.689,34.24h-4.138l2.047-5.882h0.037L237.689,34.24z"/>
		</g>
	</g>
	<g>
		<path fill="#1D1D1B" d="M258.749,37.159c-0.668,0.351-1.99,0.591-3.107,0.591c-3.021,0-4.8-2.184-4.8-5.08
			c0-2.921,1.819-5.174,4.74-5.174c1.014,0,1.99,0.146,3.061,0.765l0.206-2.41c-1.031-0.414-2.273-0.597-3.207-0.597
			c-4.8,0-7.767,2.738-7.767,7.615c0,4.823,3.184,7.127,7.767,7.127c1.077,0,2.193-0.206,3.224-0.445L258.749,37.159z"/>
	</g>
	<g>
		<g>
			<path fill="#1D1D1B" d="M262.763,34.24c0-1.568,0.854-3.124,2.621-3.124c1.782,0,2.636,1.513,2.636,3.124
				c0,1.756-0.551,3.635-2.636,3.635C263.314,37.875,262.763,35.973,262.763,34.24 M259.925,34.568c0,3.021,2.007,5.431,5.46,5.431
				c3.467,0,5.474-2.41,5.474-5.431c0-3.475-2.376-5.577-5.474-5.577C262.301,28.992,259.925,31.093,259.925,34.568"/>
		</g>
	</g>
	<g>
		<path fill="#1D1D1B" d="M272.93,39.753h2.716v-3.858c0-1.511,0-4.289,2.213-4.289c0.485,0,0.977,0.083,1.222,0.223v-2.753
			c-0.291-0.08-0.568-0.08-0.831-0.08c-1.628,0-2.744,1.65-2.861,2.627h-0.043v-2.381h-2.416V39.753z"/>
	</g>
	<g>
		<path fill="#1D1D1B" d="M290.234,29.239h-2.716v5.14c0,1.351-0.428,3.498-2.399,3.498c-1.745,0-1.762-1.739-1.762-3.03v-5.608
			h-2.721v6.636c0,2.37,1.076,4.12,3.552,4.12c1.422,0,2.593-0.654,3.424-1.673h0.046v1.428h2.576V29.239z"/>
	</g>
	<g>
		<g>
			<path fill="#1D1D1B" d="M292.914,39.754h2.716v-5.143c0-1.353,0.423-3.495,2.396-3.495c1.745,0,1.762,1.733,1.762,3.021v5.617
				h2.721v-6.636c0-2.37-1.076-4.12-3.552-4.12c-1.416,0-2.576,0.463-3.424,1.673h-0.043v-1.428h-2.576V39.754z M295.227,27.441
				c0-0.391,0.286-0.897,0.994-0.897c0.383,0,0.868,0.183,1.382,0.383c0.523,0.208,0.991,0.374,1.739,0.374
				c1.259,0,1.967-1.108,1.967-2.476h-1.096c0,0.554-0.28,0.999-0.888,0.999c-0.551,0-0.954-0.246-1.476-0.445
				c-0.537-0.208-1.059-0.408-1.645-0.408c-1.199,0-2.076,1.242-2.076,2.47H295.227z"/>
		</g>
	</g>
	<g>
		<g>
			<path fill="#1D1D1B" d="M307.114,36.71c0-1.616,1.802-1.816,3.024-1.816h1.176c0,0.82-0.117,1.57-0.565,2.162
				c-0.428,0.574-1.079,0.942-1.91,0.942C307.868,37.998,307.114,37.61,307.114,36.71 M305.738,32.138
				c0.908-0.697,2.067-1.142,3.224-1.142c1.599,0,2.353,0.568,2.353,2.262h-1.502c-1.136,0-2.476,0.109-3.512,0.614
				c-1.031,0.508-1.785,1.433-1.785,3.001c0,2.002,1.807,3.127,3.652,3.127c1.239,0,2.598-0.657,3.229-1.822h0.04
				c0.02,0.328,0.02,1.025,0.117,1.576h2.396c-0.06-0.82-0.1-1.553-0.123-2.353c-0.02-0.774-0.043-1.57-0.043-2.63v-1.351
				c0-3.101-1.311-4.426-4.5-4.426c-1.154,0-2.576,0.306-3.629,0.791L305.738,32.138z"/>
		</g>
	</g>
	<g>
		<g>
			<path fill="#1D1D1B" d="M160.253,59.502c0-1.605,1.807-1.816,3.024-1.816h1.176c0,0.82-0.117,1.57-0.571,2.162
				c-0.423,0.574-1.068,0.942-1.905,0.942C161.007,60.789,160.253,60.398,160.253,59.502 M158.876,54.93
				c0.908-0.691,2.062-1.142,3.224-1.142c1.599,0,2.353,0.574,2.353,2.262h-1.502c-1.136,0-2.476,0.109-3.512,0.614
				c-1.031,0.514-1.785,1.433-1.785,3.007c0,1.996,1.807,3.121,3.652,3.121c1.239,0,2.598-0.657,3.229-1.816h0.04
				c0.014,0.323,0.014,1.019,0.117,1.57h2.396c-0.06-0.814-0.1-1.548-0.123-2.347c-0.02-0.774-0.043-1.57-0.043-2.636v-1.345
				c0-3.107-1.316-4.432-4.5-4.432c-1.154,0-2.576,0.306-3.629,0.797L158.876,54.93z"/>
		</g>
	</g>
	<g>
		<rect x="365.033" y="1.175" fill="#1D1D1B" width="2.698" height="73.824"/>
	</g>
	<g>
		<g>
			<g>
				<path fill="#1D1D1B" d="M515.959,34.965c-1.376,0.911-2.994,1.367-4.854,1.367c-1.803,0-3.369-0.389-4.697-1.167
					c-1.329-0.778-2.353-1.897-3.074-3.359c-0.721-1.461-1.082-3.179-1.082-5.152c0-1.974,0.36-3.691,1.082-5.153
					c0.721-1.461,1.746-2.581,3.074-3.359c1.328-0.778,2.885-1.167,4.669-1.167c1.879,0,3.459,0.389,4.74,1.167
					c1.281,0.778,2.206,1.926,2.776,3.444l-2.875,1.281c-0.38-1.119-0.93-1.94-1.651-2.462c-0.721-0.522-1.661-0.783-2.818-0.783
					c-1.765,0-3.174,0.622-4.227,1.865c-1.053,1.243-1.58,2.965-1.58,5.167c0,2.22,0.503,3.948,1.509,5.181
					c1.006,1.234,2.401,1.85,4.185,1.85c1.214,0,2.235-0.303,3.06-0.911c0.826-0.607,1.419-1.499,1.779-2.676l2.904,0.968
					C518.307,32.754,517.334,34.054,515.959,34.965z"/>
			</g>
			<g>
				<path fill="#1D1D1B" d="M533.821,23.493c1.252,1.31,1.879,3.122,1.879,5.437c0,2.316-0.626,4.128-1.879,5.437
					c-1.253,1.31-2.989,1.964-5.209,1.964s-3.957-0.655-5.209-1.964c-1.253-1.31-1.879-3.121-1.879-5.437
					c0-2.315,0.626-4.128,1.879-5.437c1.253-1.31,2.989-1.964,5.209-1.964S532.569,22.183,533.821,23.493z M525.637,25.215
					c-0.693,0.864-1.039,2.102-1.039,3.715c0,1.613,0.346,2.852,1.039,3.715c0.693,0.864,1.684,1.295,2.975,1.295
					c1.29,0,2.287-0.436,2.989-1.31c0.702-0.873,1.053-2.107,1.053-3.701c0-1.594-0.351-2.828-1.053-3.701
					c-0.702-0.873-1.699-1.31-2.989-1.31C527.321,23.92,526.33,24.352,525.637,25.215z"/>
			</g>
			<g>
				<path fill="#1D1D1B" d="M548.51,21.813l-0.484,2.79c-0.437-0.246-1.035-0.37-1.793-0.37c-0.608,0-1.181,0.161-1.722,0.484
					c-0.541,0.323-0.987,0.807-1.338,1.452c-0.351,0.645-0.527,1.423-0.527,2.334v7.544H539.6V21.813h2.591l0.256,2.562
					c0.797-1.897,2.296-2.847,4.498-2.847C547.608,21.529,548.13,21.624,548.51,21.813z"/>
			</g>
			<g>
				<path fill="#1D1D1B" d="M564.28,21.813v14.233h-2.704l-0.114-2.306c-0.968,1.727-2.657,2.591-5.067,2.591
					c-1.537,0-2.776-0.422-3.715-1.267c-0.939-0.844-1.409-2.139-1.409-3.886v-9.365h3.046v8.568c0,1.252,0.246,2.14,0.74,2.662
					c0.493,0.522,1.224,0.783,2.192,0.783c1.157,0,2.111-0.365,2.861-1.096c0.749-0.73,1.124-1.808,1.124-3.231v-7.686H564.28z"/>
			</g>
			<g>
				<path fill="#1D1D1B" d="M580.52,22.895c0.996,0.911,1.495,2.22,1.495,3.928v9.223h-3.046v-8.255
					c0-2.505-1.015-3.758-3.046-3.758c-1.063,0-1.974,0.366-2.733,1.096c-0.759,0.731-1.139,1.855-1.139,3.373v7.544h-3.046V21.813
					h2.704l0.142,2.363c0.474-0.892,1.129-1.556,1.964-1.993c0.835-0.436,1.784-0.655,2.847-0.655
					C578.237,21.529,579.523,21.984,580.52,22.895z M577.574,19.65c-0.551,0-1.011-0.1-1.381-0.299
					c-0.37-0.199-0.754-0.479-1.153-0.84c-0.323-0.266-0.569-0.451-0.74-0.555c-0.171-0.104-0.37-0.156-0.598-0.156
					c-0.361,0-0.641,0.156-0.84,0.47c-0.199,0.313-0.346,0.783-0.441,1.409h-2.078c0.171-2.695,1.3-4.042,3.388-4.042
					c0.531,0,0.972,0.095,1.324,0.285c0.351,0.19,0.745,0.474,1.181,0.854c0.322,0.266,0.569,0.451,0.74,0.555
					c0.171,0.105,0.36,0.157,0.569,0.157c0.379,0,0.669-0.152,0.868-0.455c0.199-0.303,0.346-0.769,0.441-1.395h2.078
					C580.762,18.312,579.642,19.65,577.574,19.65z"/>
			</g>
			<g>
				<path fill="#1D1D1B" d="M599.977,33.94l-0.199,2.05c-0.513,0.228-1.101,0.342-1.765,0.342c-0.816,0-1.466-0.161-1.95-0.484
					c-0.484-0.322-0.802-0.863-0.953-1.622c-0.437,0.665-1.082,1.181-1.936,1.551c-0.854,0.37-1.812,0.555-2.875,0.555
					c-1.385,0-2.505-0.323-3.359-0.968c-0.854-0.645-1.281-1.566-1.281-2.761c0-1.12,0.465-2.064,1.395-2.832
					c0.93-0.769,2.315-1.314,4.156-1.637l3.615-0.626v-0.769c0-0.873-0.256-1.561-0.769-2.064c-0.512-0.503-1.224-0.754-2.135-0.754
					c-1.879,0-3.103,0.854-3.672,2.562l-2.363-1.252c0.342-1.139,1.039-2.04,2.092-2.704c1.053-0.664,2.349-0.996,3.886-0.996
					c1.84,0,3.302,0.427,4.384,1.281s1.623,2.107,1.623,3.758v6.433c0,0.361,0.08,0.626,0.242,0.797
					c0.161,0.171,0.431,0.256,0.811,0.256C599.341,34.054,599.692,34.016,599.977,33.94z M593.657,33.285
					c0.778-0.493,1.167-1.148,1.167-1.964v-1.708l-3.103,0.626c-0.987,0.19-1.718,0.455-2.192,0.797
					c-0.474,0.342-0.712,0.797-0.712,1.366c0,0.532,0.185,0.935,0.555,1.21c0.37,0.275,0.897,0.413,1.58,0.413
					C591.978,34.026,592.879,33.779,593.657,33.285z"/>
			</g>
			<g>
				<path fill="#1D1D1B" d="M512.813,62.141h-3.558l-6.974-18.788h3.245l4.384,12.497l1.139,3.729l1.139-3.701l4.384-12.526h3.217
					L512.813,62.141z"/>
			</g>
			<g>
				<path fill="#1D1D1B" d="M522.805,45.018c-0.361-0.332-0.541-0.801-0.541-1.409c0-0.607,0.18-1.072,0.541-1.395
					c0.36-0.322,0.863-0.484,1.509-0.484c0.645,0,1.143,0.161,1.494,0.484c0.351,0.323,0.527,0.788,0.527,1.395
					c0,0.608-0.176,1.077-0.527,1.409c-0.351,0.332-0.849,0.498-1.494,0.498C523.668,45.516,523.165,45.35,522.805,45.018z
					 M525.822,62.141h-3.046V47.907h3.046V62.141z"/>
			</g>
			<g>
				<path fill="#1D1D1B" d="M543.13,47.907l-5.665,14.234h-3.331l-5.693-14.234h3.359l4.014,11.757l4.128-11.757H543.13z"/>
			</g>
			<g>
				<path fill="#1D1D1B" d="M558.701,60.034l-0.199,2.05c-0.513,0.228-1.101,0.342-1.765,0.342c-0.816,0-1.466-0.161-1.95-0.484
					c-0.484-0.322-0.802-0.863-0.954-1.622c-0.437,0.664-1.082,1.181-1.936,1.551c-0.854,0.37-1.812,0.555-2.875,0.555
					c-1.385,0-2.505-0.323-3.359-0.968c-0.854-0.645-1.281-1.566-1.281-2.761c0-1.12,0.465-2.064,1.395-2.833
					c0.93-0.769,2.315-1.314,4.156-1.637l3.615-0.626v-0.769c0-0.873-0.256-1.561-0.769-2.064c-0.512-0.503-1.224-0.755-2.135-0.755
					c-1.879,0-3.103,0.854-3.672,2.562l-2.363-1.253c0.342-1.139,1.039-2.04,2.092-2.704c1.053-0.664,2.349-0.996,3.886-0.996
					c1.84,0,3.302,0.427,4.384,1.281c1.082,0.854,1.623,2.107,1.623,3.758v6.433c0,0.361,0.08,0.626,0.242,0.797
					c0.161,0.171,0.431,0.256,0.811,0.256C558.065,60.148,558.417,60.11,558.701,60.034z M552.382,59.379
					c0.778-0.493,1.167-1.148,1.167-1.964v-1.708l-3.103,0.626c-0.987,0.19-1.718,0.455-2.192,0.797
					c-0.474,0.342-0.712,0.797-0.712,1.366c0,0.531,0.185,0.935,0.555,1.21c0.37,0.275,0.897,0.413,1.58,0.413
					C550.702,60.12,551.603,59.873,552.382,59.379z"/>
			</g>
		</g>
		<g>
			<path fill="#1D1D1B" d="M464.225,46.144c-2.285,2.928-5.838,4.817-9.84,4.817c-6.896,0-12.486-5.59-12.486-12.486
				c0-6.896,5.59-12.487,12.486-12.487c4.002,0,7.555,1.89,9.84,4.817l9.548-9.22c-4.715-5.408-11.65-8.83-19.388-8.83
				c-14.204,0-25.719,11.515-25.719,25.72c0,14.204,11.515,25.719,25.719,25.719c7.738,0,14.673-3.422,19.388-8.83L464.225,46.144z"
				/>
		</g>
		<g>
			<path fill="#1D1D1B" d="M491.322,24.207c0.436,0.112,0.714,0.51,0.67,0.958c-0.217,2.205-1.219,8.683-5.62,11.761
				c-4.401,3.079-11.091,1.983-13.236,1.431c-0.436-0.112-0.714-0.51-0.67-0.958c0.217-2.205,1.48-8.865,5.881-11.944
				C482.748,22.377,489.177,23.656,491.322,24.207z"/>
		</g>
		<g>
			<circle fill="#1D1D1B" cx="481.5" cy="46.941" r="4.974"/>
		</g>
	</g>
</g>
</svg>
